<svg width="12" height="12" viewBox="0 0 12 12" fill="none" xmlns="http://www.w3.org/2000/svg">
<mask id="path-1-inside-1_4867_44709" fill="white">
<path d="M6.00293 0C6.26811 2.34856e-05 6.52245 0.105453 6.70996 0.292969C6.89747 0.480501 7.00293 0.734805 7.00293 1V4.99902H11C11.2651 4.99902 11.5195 5.10365 11.707 5.29102C11.8946 5.47855 12 5.73381 12 5.99902C11.9999 6.26408 11.8945 6.51862 11.707 6.70605C11.5195 6.89345 11.2651 6.99902 11 6.99902H7.00293V11C7.00293 11.2652 6.89747 11.5195 6.70996 11.707C6.52245 11.8945 6.26811 12 6.00293 12C5.73773 12 5.48343 11.8945 5.2959 11.707C5.10836 11.5195 5.00293 11.2652 5.00293 11V6.99902H1C0.734888 6.99902 0.480484 6.89345 0.292969 6.70605C0.105537 6.51862 0.000117498 6.26408 0 5.99902C0 5.73381 0.105432 5.47855 0.292969 5.29102C0.48048 5.10365 0.734909 4.99902 1 4.99902H5.00293V1C5.00293 0.734784 5.10836 0.480505 5.2959 0.292969C5.48343 0.10546 5.73773 0 6.00293 0Z"/>
</mask>
<path d="M6.00293 0C6.26811 2.34856e-05 6.52245 0.105453 6.70996 0.292969C6.89747 0.480501 7.00293 0.734805 7.00293 1V4.99902H11C11.2651 4.99902 11.5195 5.10365 11.707 5.29102C11.8946 5.47855 12 5.73381 12 5.99902C11.9999 6.26408 11.8945 6.51862 11.707 6.70605C11.5195 6.89345 11.2651 6.99902 11 6.99902H7.00293V11C7.00293 11.2652 6.89747 11.5195 6.70996 11.707C6.52245 11.8945 6.26811 12 6.00293 12C5.73773 12 5.48343 11.8945 5.2959 11.707C5.10836 11.5195 5.00293 11.2652 5.00293 11V6.99902H1C0.734888 6.99902 0.480484 6.89345 0.292969 6.70605C0.105537 6.51862 0.000117498 6.26408 0 5.99902C0 5.73381 0.105432 5.47855 0.292969 5.29102C0.48048 5.10365 0.734909 4.99902 1 4.99902H5.00293V1C5.00293 0.734784 5.10836 0.480505 5.2959 0.292969C5.48343 0.10546 5.73773 0 6.00293 0Z" fill="#544B45"/>
<path d="M6.00293 0L6.00295 -0.25H6.00293V0ZM6.70996 0.292969L6.88675 0.116203L6.88674 0.116192L6.70996 0.292969ZM7.00293 1H7.25293H7.00293ZM7.00293 4.99902H6.75293V5.24902H7.00293V4.99902ZM11.707 5.29102L11.8838 5.11424L11.8837 5.11417L11.707 5.29102ZM12 5.99902L12.25 5.99913V5.99902H12ZM11.707 6.70605L11.8838 6.88289L11.8838 6.88283L11.707 6.70605ZM7.00293 6.99902V6.74902H6.75293V6.99902H7.00293ZM6.70996 11.707L6.88674 11.8838L6.88675 11.8838L6.70996 11.707ZM6.00293 12V12.25H6.00295L6.00293 12ZM5.2959 11.707L5.11912 11.8838L5.11913 11.8838L5.2959 11.707ZM5.00293 6.99902H5.25293V6.74902H5.00293V6.99902ZM0.292969 6.70605L0.116192 6.88283L0.116247 6.88289L0.292969 6.70605ZM0 5.99902H-0.25L-0.25 5.99913L0 5.99902ZM0.292969 5.29102L0.116259 5.11417L0.116192 5.11424L0.292969 5.29102ZM5.00293 4.99902V5.24902H5.25293V4.99902H5.00293ZM5.00293 1H4.75293H5.00293ZM5.2959 0.292969L5.11913 0.116181L5.11912 0.116192L5.2959 0.292969ZM6.00293 0L6.00291 0.25C6.20175 0.250018 6.39252 0.329077 6.53318 0.469745L6.70996 0.292969L6.88674 0.116192C6.65238 -0.118171 6.33448 -0.249971 6.00295 -0.25L6.00293 0ZM6.70996 0.292969L6.53317 0.469734C6.67386 0.610444 6.75293 0.801188 6.75293 1H7.00293H7.25293C7.25293 0.66842 7.12107 0.350558 6.88675 0.116203L6.70996 0.292969ZM7.00293 1H6.75293V4.99902H7.00293H7.25293V1H7.00293ZM7.00293 4.99902V5.24902H11V4.99902V4.74902H7.00293V4.99902ZM11 4.99902V5.24902C11.1993 5.24902 11.39 5.32765 11.5303 5.46786L11.707 5.29102L11.8837 5.11417C11.649 4.87964 11.3309 4.74902 11 4.74902V4.99902ZM11.707 5.29102L11.5303 5.46779C11.6708 5.60831 11.75 5.79992 11.75 5.99902H12H12.25C12.25 5.66769 12.1184 5.34879 11.8838 5.11424L11.707 5.29102ZM12 5.99902L11.75 5.99891C11.7499 6.19775 11.6708 6.38874 11.5303 6.52928L11.707 6.70605L11.8838 6.88283C12.1181 6.64851 12.2499 6.33041 12.25 5.99913L12 5.99902ZM11.707 6.70605L11.5303 6.52922C11.3896 6.66988 11.1987 6.74902 11 6.74902V6.99902V7.24902C11.3315 7.24902 11.6495 7.11703 11.8838 6.88289L11.707 6.70605ZM11 6.99902V6.74902H7.00293V6.99902V7.24902H11V6.99902ZM7.00293 6.99902H6.75293V11H7.00293H7.25293V6.99902H7.00293ZM7.00293 11H6.75293C6.75293 11.1988 6.67386 11.3896 6.53317 11.5303L6.70996 11.707L6.88675 11.8838C7.12107 11.6494 7.25293 11.3316 7.25293 11H7.00293ZM6.70996 11.707L6.53318 11.5303C6.39252 11.6709 6.20175 11.75 6.00291 11.75L6.00293 12L6.00295 12.25C6.33448 12.25 6.65238 12.1182 6.88674 11.8838L6.70996 11.707ZM6.00293 12V11.75C5.80412 11.75 5.61337 11.6709 5.47266 11.5302L5.2959 11.707L5.11913 11.8838C5.35349 12.1181 5.67135 12.25 6.00293 12.25V12ZM5.2959 11.707L5.47267 11.5303C5.33197 11.3896 5.25293 11.1988 5.25293 11H5.00293H4.75293C4.75293 11.3316 4.88475 11.6494 5.11912 11.8838L5.2959 11.707ZM5.00293 11H5.25293V6.99902H5.00293H4.75293V11H5.00293ZM5.00293 6.99902V6.74902H1V6.99902V7.24902H5.00293V6.99902ZM1 6.99902V6.74902C0.801318 6.74902 0.610434 6.66988 0.46969 6.52922L0.292969 6.70605L0.116247 6.88289C0.350534 7.11703 0.668459 7.24902 1 7.24902V6.99902ZM0.292969 6.70605L0.469745 6.52928C0.329207 6.38874 0.250088 6.19775 0.25 5.99891L0 5.99902L-0.25 5.99913C-0.249853 6.33041 -0.118133 6.64851 0.116192 6.88283L0.292969 6.70605ZM0 5.99902H0.25C0.25 5.79992 0.329228 5.60831 0.469745 5.46779L0.292969 5.29102L0.116192 5.11424C-0.118363 5.34879 -0.25 5.66769 -0.25 5.99902H0ZM0.292969 5.29102L0.469679 5.46786C0.609989 5.32765 0.800724 5.24902 1 5.24902V4.99902V4.74902C0.669095 4.74902 0.35097 4.87964 0.116259 5.11417L0.292969 5.29102ZM1 4.99902V5.24902H5.00293V4.99902V4.74902H1V4.99902ZM5.00293 4.99902H5.25293V1H5.00293H4.75293V4.99902H5.00293ZM5.00293 1H5.25293C5.25293 0.801156 5.33197 0.610446 5.47268 0.469745L5.2959 0.292969L5.11912 0.116192C4.88475 0.350564 4.75293 0.668411 4.75293 1H5.00293ZM5.2959 0.292969L5.47266 0.469756C5.61337 0.329065 5.80412 0.25 6.00293 0.25V0V-0.25C5.67135 -0.25 5.35349 -0.118145 5.11913 0.116181L5.2959 0.292969Z" fill="white" mask="url(#path-1-inside-1_4867_44709)"/>
</svg>
