<svg width="24" height="24" viewBox="0 0 24 24" fill="none" xmlns="http://www.w3.org/2000/svg">
<path d="M3 9H4.8L10.4335 11.3473C11.2915 11.7048 11.685 12.7 11.3036 13.5475C10.939 14.3579 9.99807 14.7339 9.17536 14.3981L7.5 13.7143" stroke="#766F6A" stroke-width="1.2" stroke-linecap="round" stroke-linejoin="round"/>
<path d="M3.25466 15.9567C2.95462 15.8161 2.59737 15.9453 2.45672 16.2453C2.31608 16.5454 2.4453 16.9026 2.74534 17.0433L3 16.5L3.25466 15.9567ZM11.2547 13.4567L10.7114 13.2021L10.2021 14.2886L10.7453 14.5433L11 14L11.2547 13.4567ZM13.3454 15.0994L13.0908 15.6427L13.3454 15.0994ZM15.892 15.6667V16.2667H17.3333V15.6667V15.0667H15.892V15.6667ZM17.3333 19V18.4H10.1153V19V19.6H17.3333V19ZM6.71983 18.2437L6.97449 17.7004L3.25466 15.9567L3 16.5L2.74534 17.0433L6.46517 18.7869L6.71983 18.2437ZM13.3454 15.0994L13.6001 14.5561L11.2547 13.4567L11 14L10.7453 14.5433L13.0908 15.6427L13.3454 15.0994ZM10.1153 19V18.4C9.02973 18.4 7.95744 18.1612 6.97449 17.7004L6.71983 18.2437L6.46517 18.7869C7.60752 19.3224 8.85369 19.6 10.1153 19.6V19ZM19 17.3333H18.4C18.4 17.9224 17.9224 18.4 17.3333 18.4V19V19.6C18.5852 19.6 19.6 18.5852 19.6 17.3333H19ZM17.3333 15.6667V16.2667C17.9224 16.2667 18.4 16.7442 18.4 17.3333H19H19.6C19.6 16.0815 18.5852 15.0667 17.3333 15.0667V15.6667ZM15.892 15.6667V15.0667C15.0999 15.0667 14.3174 14.8924 13.6001 14.5561L13.3454 15.0994L13.0908 15.6427C13.9675 16.0536 14.9238 16.2667 15.892 16.2667V15.6667Z" fill="#766F6A"/>
<circle cx="16.5" cy="8.5" r="3.5" stroke="#766F6A" stroke-width="1.2"/>
</svg>
