<svg width="24" height="24" viewBox="0 0 24 24" fill="none" xmlns="http://www.w3.org/2000/svg">
<path fill-rule="evenodd" clip-rule="evenodd" d="M4.44609 8.06155V5.16932C4.44614 4.97756 4.52235 4.79366 4.65794 4.65807C4.79354 4.52247 4.97744 4.44627 5.1692 4.44621H8.06143C8.25028 4.4418 8.42991 4.36367 8.56191 4.22854C8.69392 4.09342 8.76782 3.91201 8.76782 3.72311C8.76782 3.5342 8.69392 3.3528 8.56191 3.21767C8.42991 3.08254 8.25028 3.00442 8.06143 3H5.1692C3.97095 3 2.99988 3.97107 2.99988 5.16932V8.06155C3.0043 8.2504 3.08242 8.43003 3.21755 8.56204C3.35268 8.69404 3.53408 8.76794 3.72299 8.76794C3.91189 8.76794 4.09329 8.69404 4.22842 8.56204C4.36355 8.43003 4.44167 8.2504 4.44609 8.06155ZM2.99988 16.7384V19.6307C2.99988 20.8289 3.97095 21.8 5.1692 21.8H8.06143C8.25028 21.7956 8.42991 21.7175 8.56191 21.5823C8.69392 21.4472 8.76782 21.2658 8.76782 21.0769C8.76782 20.888 8.69392 20.7066 8.56191 20.5715C8.42991 20.4363 8.25028 20.3582 8.06143 20.3538H5.1692C4.97744 20.3537 4.79354 20.2775 4.65794 20.1419C4.52235 20.0063 4.44614 19.8224 4.44609 19.6307V16.7384C4.44167 16.5496 4.36355 16.37 4.22842 16.238C4.09329 16.106 3.91189 16.0321 3.72299 16.0321C3.53408 16.0321 3.35268 16.106 3.21755 16.238C3.08242 16.37 3.0043 16.5496 2.99988 16.7384ZM21.7999 8.06155V5.16932C21.7999 3.97107 20.8288 3 19.6306 3H16.7383C16.5495 3.00442 16.3698 3.08254 16.2378 3.21767C16.1058 3.3528 16.0319 3.5342 16.0319 3.72311C16.0319 3.91201 16.1058 4.09342 16.2378 4.22854C16.3698 4.36367 16.5495 4.4418 16.7383 4.44621H19.6306C19.8223 4.44627 20.0062 4.52247 20.1418 4.65807C20.2774 4.79366 20.3536 4.97756 20.3537 5.16932V8.06155C20.3581 8.2504 20.4362 8.43003 20.5713 8.56204C20.7065 8.69404 20.8879 8.76794 21.0768 8.76794C21.2657 8.76794 21.4471 8.69404 21.5822 8.56204C21.7173 8.43003 21.7955 8.2504 21.7999 8.06155ZM20.3537 16.7384V19.6307C20.3536 19.8224 20.2774 20.0063 20.1418 20.1419C20.0062 20.2775 19.8223 20.3537 19.6306 20.3538H16.7383C16.5495 20.3582 16.3698 20.4363 16.2378 20.5715C16.1058 20.7066 16.0319 20.888 16.0319 21.0769C16.0319 21.2658 16.1058 21.4472 16.2378 21.5823C16.3698 21.7175 16.5495 21.7956 16.7383 21.8H19.6306C20.8288 21.8 21.7999 20.8289 21.7999 19.6307V16.7384C21.7955 16.5496 21.7173 16.37 21.5822 16.238C21.4471 16.106 21.2657 16.0321 21.0768 16.0321C20.8879 16.0321 20.7065 16.106 20.5713 16.238C20.4362 16.37 20.3581 16.5496 20.3537 16.7384Z" fill="#766F6A"/>
<path fill-rule="evenodd" clip-rule="evenodd" d="M18.9076 14.5542L5.89211 14.5657V18.1848C5.89211 18.3764 5.9681 18.5608 6.10405 18.696C6.17112 18.7632 6.2508 18.8165 6.33852 18.8528C6.42624 18.8892 6.52027 18.9078 6.61522 18.9077H18.1845C18.3761 18.9077 18.5605 18.8319 18.6957 18.696C18.7629 18.6289 18.8162 18.5492 18.8525 18.4615C18.8889 18.3738 18.9075 18.2798 18.9074 18.1848L18.9076 14.5542ZM5.89211 11.6735L3.72219 11.677C3.53048 11.6775 3.34676 11.7539 3.21134 11.8896C3.07593 12.0253 2.99988 12.2092 2.99988 12.4009C3.00014 12.5927 3.07652 12.7765 3.21222 12.9119C3.34792 13.0473 3.53185 13.1234 3.72358 13.1233L21.0776 13.1045C21.4767 13.1045 21.7999 12.7799 21.7999 12.3806C21.7995 12.1888 21.723 12.0051 21.5873 11.8697C21.4516 11.7343 21.2677 11.6582 21.076 11.6582L18.9076 11.6618V6.61549C18.9076 6.42393 18.8317 6.23949 18.6957 6.10433C18.6286 6.03712 18.549 5.98382 18.4612 5.94748C18.3735 5.91114 18.2795 5.89248 18.1845 5.89258H6.61522C6.42365 5.89258 6.23922 5.96837 6.10405 6.10433C6.03685 6.17139 5.98354 6.25107 5.94721 6.33879C5.91087 6.42651 5.89221 6.52054 5.89231 6.61549L5.89211 11.6735Z" fill="#766F6A"/>
</svg>
