<svg width="56" height="56" viewBox="12 8 32 32" fill="none" xmlns="http://www.w3.org/2000/svg">
<rect x="12" y="8" width="32" height="32" rx="6" fill="#AE6F28"/>
<path d="M19 21H20.8L26.4335 23.3473C27.2915 23.7048 27.685 24.7 27.3036 25.5475C26.939 26.3579 25.9981 26.7339 25.1754 26.3981L23.5 25.7143" stroke="white" stroke-width="1.2" stroke-linecap="round" stroke-linejoin="round"/>
<path d="M22.7198 30.2437L22.4652 30.7869H22.4652L22.7198 30.2437ZM19.2547 27.9567C18.9546 27.8161 18.5974 27.9453 18.4567 28.2453C18.3161 28.5454 18.4453 28.9026 18.7453 29.0433L19 28.5L19.2547 27.9567ZM29.3454 27.0994L29.6001 26.5561V26.5561L29.3454 27.0994ZM27.2547 25.4567L26.7114 25.2021L26.2021 26.2886L26.7453 26.5433L27 26L27.2547 25.4567ZM31.892 27.6667V28.2667H33.3333V27.6667V27.0667H31.892V27.6667ZM33.3333 31V30.4H26.1153V31V31.6H33.3333V31ZM22.7198 30.2437L22.9745 29.7004L19.2547 27.9567L19 28.5L18.7453 29.0433L22.4652 30.7869L22.7198 30.2437ZM29.3454 27.0994L29.6001 26.5561L27.2547 25.4567L27 26L26.7453 26.5433L29.0908 27.6427L29.3454 27.0994ZM26.1153 31V30.4C25.0297 30.4 23.9574 30.1612 22.9745 29.7004L22.7198 30.2437L22.4652 30.7869C23.6075 31.3224 24.8537 31.6 26.1153 31.6V31ZM35 29.3333H34.4C34.4 29.9224 33.9224 30.4 33.3333 30.4V31V31.6C34.5852 31.6 35.6 30.5852 35.6 29.3333H35ZM33.3333 27.6667V28.2667C33.9224 28.2667 34.4 28.7442 34.4 29.3333H35H35.6C35.6 28.0815 34.5852 27.0667 33.3333 27.0667V27.6667ZM31.892 27.6667V27.0667C31.0999 27.0667 30.3174 26.8924 29.6001 26.5561L29.3454 27.0994L29.0908 27.6427C29.9675 28.0536 30.9238 28.2667 31.892 28.2667V27.6667Z" fill="white"/>
<circle cx="32.5" cy="20.5" r="3.5" fill="white"/>
</svg>
