<svg width="32" height="32" viewBox="0 0 32 32" fill="none" xmlns="http://www.w3.org/2000/svg">
<rect width="32" height="32" rx="6" fill="#AE6F28"/>
<path d="M7 15.9896V18.5C7 21.7998 7 23.4497 8.02513 24.4749C9.05025 25.5 10.7002 25.5 14 25.5H18C21.2998 25.5 22.9497 25.5 23.9749 24.4749C25 23.4497 25 21.7998 25 18.5V15.9896C25 14.3083 25 13.4677 24.6441 12.7401C24.2882 12.0124 23.6247 11.4963 22.2976 10.4641L20.2976 8.90854C18.2331 7.30276 17.2009 6.5 16 6.5C14.7991 6.5 13.7669 7.30276 11.7024 8.90854L9.70239 10.4641C8.37533 11.4963 7.71181 12.0124 7.3559 12.7401C7 13.4677 7 14.3083 7 15.9896Z" fill="white"/>
<path d="M19.0002 21C18.2007 21.6224 17.1504 22 16.0002 22C14.8499 22 13.7997 21.6224 13.0002 21" stroke="#AE6F28" stroke-width="1.5" stroke-linecap="round" stroke-linejoin="round"/>
</svg>
