<svg width="40" height="40" viewBox="0 0 40 40" fill="none" xmlns="http://www.w3.org/2000/svg">
<path d="M0 19.9963C0 8.95267 8.95267 0 19.9963 0C31.04 0 39.9927 8.95267 39.9927 19.9963C39.9927 31.04 31.04 39.9927 19.9963 39.9927C8.95267 39.9927 0 31.04 0 19.9963Z" fill="#41E0E0" fill-opacity="0.1"/>
<g clip-path="url(#clip0_9_2383)">
<path d="M23.9866 28.9965V26.9965C23.9866 25.9356 23.5652 24.9182 22.815 24.1681C22.0649 23.4179 21.0475 22.9965 19.9866 22.9965H12.9866C11.9257 22.9965 10.9083 23.4179 10.1581 24.1681C9.40801 24.9182 8.98658 25.9356 8.98658 26.9965V28.9965M30.9866 28.9965V26.9965C30.9859 26.1102 30.691 25.2493 30.148 24.5488C29.605 23.8484 28.8447 23.3481 27.9866 23.1265M23.9866 11.1265C24.847 11.3468 25.6096 11.8472 26.1542 12.5488C26.6988 13.2504 26.9944 14.1134 26.9944 15.0015C26.9944 15.8897 26.6988 16.7526 26.1542 17.4542C25.6096 18.1558 24.847 18.6562 23.9866 18.8765M20.4866 14.9965C20.4866 17.2057 18.6957 18.9965 16.4866 18.9965C14.2774 18.9965 12.4866 17.2057 12.4866 14.9965C12.4866 12.7874 14.2774 10.9965 16.4866 10.9965C18.6957 10.9965 20.4866 12.7874 20.4866 14.9965Z" fill="#41E0E0"/>
<path d="M23.9866 28.9965V26.9965C23.9866 25.9356 23.5652 24.9182 22.815 24.1681C22.0649 23.4179 21.0475 22.9965 19.9866 22.9965H12.9866C11.9257 22.9965 10.9083 23.4179 10.1581 24.1681C9.40801 24.9182 8.98658 25.9356 8.98658 26.9965V28.9965M30.9866 28.9965V26.9965C30.9859 26.1102 30.691 25.2493 30.148 24.5488C29.605 23.8484 28.8447 23.3481 27.9866 23.1265M23.9866 11.1265C24.847 11.3468 25.6096 11.8472 26.1542 12.5488C26.6988 13.2504 26.9944 14.1134 26.9944 15.0015C26.9944 15.8897 26.6988 16.7526 26.1542 17.4542C25.6096 18.1558 24.847 18.6562 23.9866 18.8765M20.4866 14.9965C20.4866 17.2057 18.6957 18.9965 16.4866 18.9965C14.2774 18.9965 12.4866 17.2057 12.4866 14.9965C12.4866 12.7874 14.2774 10.9965 16.4866 10.9965C18.6957 10.9965 20.4866 12.7874 20.4866 14.9965Z" stroke="#41E0E0" stroke-width="1.99997" stroke-linecap="round" stroke-linejoin="round"/>
</g>
<defs>
<clipPath id="clip0_9_2383">
<rect width="23.9996" height="23.9996" fill="white" transform="translate(7.98658 7.99652)"/>
</clipPath>
</defs>
</svg>
