<svg width="25" height="22" viewBox="0 0 25 22" fill="none" xmlns="http://www.w3.org/2000/svg">
<path d="M0.993884 14.1986L0.517578 13.7939H0.517578L0.993884 14.1986ZM1.71032 12.5351L1.08929 12.4647L1.71032 12.5351ZM12.5722 12.5351L13.1932 12.4647V12.4647L12.5722 12.5351ZM13.2886 14.1986L13.7649 13.7939V13.7939L13.2886 14.1986ZM12.2912 10.0544L11.6702 10.1247V10.1248L12.2912 10.0544ZM1.99133 10.0544L2.61236 10.1247L1.99133 10.0544ZM10.171 18.5897C10.2921 18.2665 10.1283 17.9063 9.80504 17.7851C9.48182 17.664 9.12159 17.8278 9.00045 18.151L9.5857 18.3704L10.171 18.5897ZM5.28206 18.151C5.16093 17.8278 4.8007 17.664 4.47748 17.7851C4.15425 17.9063 3.99043 18.2665 4.11157 18.5897L4.69682 18.3704L5.28206 18.151ZM12.1686 16.7407V16.1157H2.11396V16.7407V17.3657H12.1686V16.7407ZM12.2912 10.0544L11.6702 10.1248L11.9512 12.6054L12.5722 12.5351L13.1932 12.4647L12.9122 9.98405L12.2912 10.0544ZM1.71032 12.5351L2.33135 12.6054L2.61236 10.1247L1.99133 10.0544L1.37031 9.98405L1.08929 12.4647L1.71032 12.5351ZM0.993884 14.1986L1.47019 14.6032C1.94839 14.0404 2.24774 13.3435 2.33135 12.6054L1.71032 12.5351L1.08929 12.4647C1.03326 12.9594 0.832957 13.4227 0.517578 13.7939L0.993884 14.1986ZM12.5722 12.5351L11.9512 12.6054C12.0348 13.3435 12.3341 14.0404 12.8123 14.6032L13.2886 14.1986L13.7649 13.7939C13.4496 13.4227 13.2493 12.9594 13.1932 12.4647L12.5722 12.5351ZM2.11396 16.7407V16.1157C1.40403 16.1157 0.949492 15.2161 1.47019 14.6032L0.993884 14.1986L0.517578 13.7939C-0.645794 15.1632 0.266479 17.3657 2.11396 17.3657V16.7407ZM12.1686 16.7407V17.3657C14.016 17.3657 14.9283 15.1632 13.7649 13.7939L13.2886 14.1986L12.8123 14.6032C13.333 15.2161 12.8785 16.1157 12.1686 16.1157V16.7407ZM12.2912 10.0544L12.9122 9.98405C12.5732 6.99115 10.1047 4.70833 7.14126 4.70833V5.33333V5.95833C9.43999 5.95833 11.3994 7.73469 11.6702 10.1247L12.2912 10.0544ZM1.99133 10.0544L2.61236 10.1247C2.88311 7.73469 4.84253 5.95833 7.14126 5.95833V5.33333V4.70833C4.17782 4.70833 1.70934 6.99115 1.37031 9.98405L1.99133 10.0544ZM9.5857 18.3704L9.00045 18.151C8.73961 18.847 8.01943 19.375 7.14126 19.375V20V20.625C8.52017 20.625 9.72016 19.7925 10.171 18.5897L9.5857 18.3704ZM7.14126 20V19.375C6.26309 19.375 5.54291 18.847 5.28206 18.151L4.69682 18.3704L4.11157 18.5897C4.56236 19.7925 5.76234 20.625 7.14126 20.625V20Z" fill="#241F21"/>
<g filter="url(#filter0_d_9_2616)">
<circle cx="14.1516" cy="6.66667" r="6.66667" fill="#ED1B24"/>
</g>
<path d="M11.976 10.0069V9.46291L14.256 7.26291C14.4587 7.07091 14.608 6.90291 14.704 6.75891C14.8053 6.60958 14.872 6.47358 14.904 6.35091C14.9413 6.22291 14.96 6.10025 14.96 5.98291C14.96 5.69491 14.8587 5.46825 14.656 5.30291C14.4533 5.13758 14.1573 5.05491 13.768 5.05491C13.4693 5.05491 13.2 5.10558 12.96 5.20691C12.72 5.30291 12.512 5.45491 12.336 5.66291L11.792 5.19091C12.0053 4.91891 12.2907 4.71091 12.648 4.56691C13.0107 4.41758 13.408 4.34291 13.84 4.34291C14.2293 4.34291 14.568 4.40691 14.856 4.53491C15.144 4.65758 15.3653 4.83625 15.52 5.07091C15.68 5.30558 15.76 5.58291 15.76 5.90291C15.76 6.08425 15.736 6.26291 15.688 6.43891C15.64 6.61491 15.5493 6.80158 15.416 6.99891C15.2827 7.19625 15.0907 7.41758 14.84 7.66291L12.808 9.62291L12.616 9.31091H16V10.0069H11.976Z" fill="white"/>
<defs>
<filter id="filter0_d_9_2616" x="3.48492" y="0" width="21.3333" height="21.3333" filterUnits="userSpaceOnUse" color-interpolation-filters="sRGB">
<feFlood flood-opacity="0" result="BackgroundImageFix"/>
<feColorMatrix in="SourceAlpha" type="matrix" values="0 0 0 0 0 0 0 0 0 0 0 0 0 0 0 0 0 0 127 0" result="hardAlpha"/>
<feOffset dy="4"/>
<feGaussianBlur stdDeviation="2"/>
<feComposite in2="hardAlpha" operator="out"/>
<feColorMatrix type="matrix" values="0 0 0 0 0.929412 0 0 0 0 0.105882 0 0 0 0 0.141176 0 0 0 0.15 0"/>
<feBlend mode="normal" in2="BackgroundImageFix" result="effect1_dropShadow_9_2616"/>
<feBlend mode="normal" in="SourceGraphic" in2="effect1_dropShadow_9_2616" result="shape"/>
</filter>
</defs>
</svg>
