<svg width="18" height="14" viewBox="0 0 18 14" fill="none" xmlns="http://www.w3.org/2000/svg">
<path d="M0.666748 11.168V2.83464C0.666748 2.39261 0.842343 1.96868 1.1549 1.65612C1.46746 1.34356 1.89139 1.16797 2.33341 1.16797H15.6667C16.1088 1.16797 16.5327 1.34356 16.8453 1.65612C17.1578 1.96868 17.3334 2.39261 17.3334 2.83464V11.168C17.3334 11.61 17.1578 12.0339 16.8453 12.3465C16.5327 12.659 16.1088 12.8346 15.6667 12.8346H2.33341C1.89139 12.8346 1.46746 12.659 1.1549 12.3465C0.842343 12.0339 0.666748 11.61 0.666748 11.168Z" stroke="#544B45" stroke-linecap="round" stroke-linejoin="round"/>
<path d="M14.4168 7.00833L14.4252 6.99917M3.5835 7.00833L3.59183 6.99917M9.00016 9.5C8.33712 9.5 7.70124 9.23661 7.23239 8.76777C6.76355 8.29893 6.50016 7.66304 6.50016 7C6.50016 6.33696 6.76355 5.70107 7.23239 5.23223C7.70124 4.76339 8.33712 4.5 9.00016 4.5C9.6632 4.5 10.2991 4.76339 10.7679 5.23223C11.2368 5.70107 11.5002 6.33696 11.5002 7C11.5002 7.66304 11.2368 8.29893 10.7679 8.76777C10.2991 9.23661 9.6632 9.5 9.00016 9.5Z" stroke="#544B45" stroke-linecap="round" stroke-linejoin="round"/>
</svg>
