<svg width="20" height="20" viewBox="0 0 20 20" fill="none" xmlns="http://www.w3.org/2000/svg">
<path d="M1.66675 14.168V5.83464C1.66675 5.39261 1.84234 4.96868 2.1549 4.65612C2.46746 4.34356 2.89139 4.16797 3.33341 4.16797H16.6667C17.1088 4.16797 17.5327 4.34356 17.8453 4.65612C18.1578 4.96868 18.3334 5.39261 18.3334 5.83464V14.168C18.3334 14.61 18.1578 15.0339 17.8453 15.3465C17.5327 15.659 17.1088 15.8346 16.6667 15.8346H3.33341C2.89139 15.8346 2.46746 15.659 2.1549 15.3465C1.84234 15.0339 1.66675 14.61 1.66675 14.168Z" stroke="#5A2F0E" stroke-width="1.2" stroke-linecap="round" stroke-linejoin="round"/>
<path d="M15.4168 10.0083L15.4252 9.99917M4.5835 10.0083L4.59183 9.99917M10.0002 12.5C9.33712 12.5 8.70124 12.2366 8.23239 11.7678C7.76355 11.2989 7.50016 10.663 7.50016 10C7.50016 9.33696 7.76355 8.70107 8.23239 8.23223C8.70124 7.76339 9.33712 7.5 10.0002 7.5C10.6632 7.5 11.2991 7.76339 11.7679 8.23223C12.2368 8.70107 12.5002 9.33696 12.5002 10C12.5002 10.663 12.2368 11.2989 11.7679 11.7678C11.2991 12.2366 10.6632 12.5 10.0002 12.5Z" stroke="#5A2F0E" stroke-width="1.2" stroke-linecap="round" stroke-linejoin="round"/>
</svg>
