<svg width="20" height="14" viewBox="0 0 20 14" fill="none" xmlns="http://www.w3.org/2000/svg">
<path d="M18.8 0.199219H1.2C0.538398 0.199219 0 0.737617 0 1.39922V12.5992C0 13.2608 0.538398 13.7992 1.2 13.7992H18.8C19.4616 13.7992 20 13.2608 20 12.5992V1.39922C20 0.737617 19.4616 0.199219 18.8 0.199219ZM19.2 12.5992C19.2 12.8192 19.02 12.9992 18.8 12.9992H1.2C0.979219 12.9992 0.8 12.8192 0.8 12.5992V1.39922C0.8 1.1784 0.979219 0.999219 1.2 0.999219H18.8C19.02 0.999219 19.2 1.1784 19.2 1.39922V12.5992Z" fill="#544B45"/>
<path d="M0.399902 3.80078H19.5999V5.40078H0.399902V3.80078Z" fill="#544B45"/>
<path d="M19.6 3.39844H0.4C0.179219 3.39844 0 3.57762 0 3.79844V5.39844C0 5.61926 0.179219 5.79844 0.4 5.79844H19.6C19.8208 5.79844 20 5.61926 20 5.39844V3.79844C20 3.57762 19.8208 3.39844 19.6 3.39844ZM19.2 4.99844H0.8V4.19844H19.2V4.99844ZM10.8 8.19844H3.6C3.37922 8.19844 3.2 8.37766 3.2 8.59844C3.2 8.81922 3.37922 8.99844 3.6 8.99844H10.8C11.0208 8.99844 11.2 8.81922 11.2 8.59844C11.2 8.37762 11.0208 8.19844 10.8 8.19844ZM7.6 9.79844H3.6C3.37922 9.79844 3.2 9.97766 3.2 10.1984C3.2 10.4192 3.37922 10.5984 3.6 10.5984H7.6C7.82078 10.5984 8 10.4192 8 10.1984C8 9.97766 7.82078 9.79844 7.6 9.79844Z" fill="#544B45"/>
</svg>
