<svg width="20" height="20" viewBox="0 0 20 20" fill="none" xmlns="http://www.w3.org/2000/svg">
<path d="M18.8 3.19922H1.2C0.538398 3.19922 0 3.73762 0 4.39922V15.5992C0 16.2608 0.538398 16.7992 1.2 16.7992H18.8C19.4616 16.7992 20 16.2608 20 15.5992V4.39922C20 3.73762 19.4616 3.19922 18.8 3.19922ZM19.2 15.5992C19.2 15.8192 19.02 15.9992 18.8 15.9992H1.2C0.979219 15.9992 0.8 15.8192 0.8 15.5992V4.39922C0.8 4.1784 0.979219 3.99922 1.2 3.99922H18.8C19.02 3.99922 19.2 4.1784 19.2 4.39922V15.5992Z" fill="#5A2F0E"/>
<path d="M0.399902 6.80078H19.5999V8.40078H0.399902V6.80078Z" fill="#5A2F0E"/>
<path d="M19.6 6.39844H0.4C0.179219 6.39844 0 6.57762 0 6.79844V8.39844C0 8.61926 0.179219 8.79844 0.4 8.79844H19.6C19.8208 8.79844 20 8.61926 20 8.39844V6.79844C20 6.57762 19.8208 6.39844 19.6 6.39844ZM19.2 7.99844H0.8V7.19844H19.2V7.99844ZM10.8 11.1984H3.6C3.37922 11.1984 3.2 11.3777 3.2 11.5984C3.2 11.8192 3.37922 11.9984 3.6 11.9984H10.8C11.0208 11.9984 11.2 11.8192 11.2 11.5984C11.2 11.3776 11.0208 11.1984 10.8 11.1984ZM7.6 12.7984H3.6C3.37922 12.7984 3.2 12.9777 3.2 13.1984C3.2 13.4192 3.37922 13.5984 3.6 13.5984H7.6C7.82078 13.5984 8 13.4192 8 13.1984C8 12.9777 7.82078 12.7984 7.6 12.7984Z" fill="#5A2F0E"/>
</svg>
