<svg width="32" height="32" viewBox="0 0 32 32" fill="none" xmlns="http://www.w3.org/2000/svg">
<rect width="32" height="32" rx="6" fill="#AE6F28"/>
<g clip-path="url(#clip0_3597_43518)">
<path fill-rule="evenodd" clip-rule="evenodd" d="M7.9616 11.6154V8.6924C7.96165 8.4986 8.03866 8.31274 8.1757 8.1757C8.31274 8.03866 8.4986 7.96165 8.6924 7.9616H11.6154C11.8063 7.95713 11.9878 7.87818 12.1212 7.74161C12.2546 7.60505 12.3293 7.42171 12.3293 7.2308C12.3293 7.03989 12.2546 6.85655 12.1212 6.71999C11.9878 6.58342 11.8063 6.50447 11.6154 6.5H8.6924C7.4814 6.5 6.5 7.4814 6.5 8.6924V11.6154C6.50447 11.8063 6.58342 11.9878 6.71999 12.1212C6.85655 12.2546 7.03989 12.3293 7.2308 12.3293C7.42171 12.3293 7.60505 12.2546 7.74161 12.1212C7.87818 11.9878 7.95713 11.8063 7.9616 11.6154ZM6.5 20.3846V23.3076C6.5 24.5186 7.4814 25.5 8.6924 25.5H11.6154C11.8063 25.4955 11.9878 25.4166 12.1212 25.28C12.2546 25.1434 12.3293 24.9601 12.3293 24.7692C12.3293 24.5783 12.2546 24.3949 12.1212 24.2584C11.9878 24.1218 11.8063 24.0429 11.6154 24.0384H8.6924C8.4986 24.0383 8.31274 23.9613 8.1757 23.8243C8.03866 23.6873 7.96165 23.5014 7.9616 23.3076V20.3846C7.95713 20.1937 7.87818 20.0122 7.74161 19.8788C7.60505 19.7454 7.42171 19.6707 7.2308 19.6707C7.03989 19.6707 6.85655 19.7454 6.71999 19.8788C6.58342 20.0122 6.50447 20.1937 6.5 20.3846ZM25.5 11.6154V8.6924C25.5 7.4814 24.5186 6.5 23.3076 6.5H20.3846C20.1937 6.50447 20.0122 6.58342 19.8788 6.71999C19.7454 6.85655 19.6707 7.03989 19.6707 7.2308C19.6707 7.42171 19.7454 7.60505 19.8788 7.74161C20.0122 7.87818 20.1937 7.95713 20.3846 7.9616H23.3076C23.5014 7.96165 23.6873 8.03866 23.8243 8.1757C23.9613 8.31274 24.0383 8.4986 24.0384 8.6924V11.6154C24.0429 11.8063 24.1218 11.9878 24.2584 12.1212C24.3949 12.2546 24.5783 12.3293 24.7692 12.3293C24.9601 12.3293 25.1434 12.2546 25.28 12.1212C25.4166 11.9878 25.4955 11.8063 25.5 11.6154ZM24.0384 20.3846V23.3076C24.0383 23.5014 23.9613 23.6873 23.8243 23.8243C23.6873 23.9613 23.5014 24.0383 23.3076 24.0384H20.3846C20.1937 24.0429 20.0122 24.1218 19.8788 24.2584C19.7454 24.3949 19.6707 24.5783 19.6707 24.7692C19.6707 24.9601 19.7454 25.1434 19.8788 25.28C20.0122 25.4166 20.1937 25.4955 20.3846 25.5H23.3076C24.5186 25.5 25.5 24.5186 25.5 23.3076V20.3846C25.4955 20.1937 25.4166 20.0122 25.28 19.8788C25.1434 19.7454 24.9601 19.6707 24.7692 19.6707C24.5783 19.6707 24.3949 19.7454 24.2584 19.8788C24.1218 20.0122 24.0429 20.1937 24.0384 20.3846Z" fill="white"/>
<path fill-rule="evenodd" clip-rule="evenodd" d="M22.577 18.1757L9.423 18.1873V21.8449C9.423 22.0385 9.4998 22.2249 9.6372 22.3615C9.70498 22.4294 9.78551 22.4833 9.87416 22.52C9.96281 22.5567 10.0578 22.5756 10.1538 22.5755H21.8462C22.0398 22.5755 22.2262 22.4989 22.3628 22.3615C22.4307 22.2937 22.4846 22.2132 22.5213 22.1245C22.558 22.0359 22.5769 21.9408 22.5768 21.8449L22.577 18.1757ZM9.423 15.2643L7.23 15.2679C7.03624 15.2683 6.85057 15.3456 6.71371 15.4827C6.57686 15.6199 6.5 15.8057 6.5 15.9995C6.50027 16.1932 6.57745 16.379 6.7146 16.5159C6.85175 16.6527 7.03763 16.7296 7.2314 16.7295L24.77 16.7105C25.1734 16.7105 25.5 16.3825 25.5 15.9789C25.4996 15.7851 25.4223 15.5994 25.2852 15.4626C25.148 15.3257 24.9622 15.2489 24.7684 15.2489L22.577 15.2525V10.1525C22.577 9.95888 22.5002 9.77248 22.3628 9.63588C22.295 9.56795 22.2145 9.51408 22.1258 9.47736C22.0372 9.44064 21.9422 9.42178 21.8462 9.42188H10.1538C9.9602 9.42188 9.7738 9.49848 9.6372 9.63588C9.56928 9.70366 9.51541 9.78418 9.47868 9.87284C9.44196 9.96149 9.4231 10.0565 9.4232 10.1525L9.423 15.2643Z" fill="white"/>
</g>
<defs>
<clipPath id="clip0_3597_43518">
<rect width="20" height="20" fill="white" transform="translate(6 6)"/>
</clipPath>
</defs>
</svg>
