<svg width="24" height="24" viewBox="0 0 24 24" fill="none" xmlns="http://www.w3.org/2000/svg">
<path fill-rule="evenodd" clip-rule="evenodd" d="M18.95 20.2856C19.7367 20.2856 20.3744 19.6456 20.3744 18.8567V16.5711C20.3685 16.4552 20.3863 16.3394 20.4265 16.2306C20.4668 16.1218 20.5288 16.0223 20.6087 15.9382C20.6886 15.8541 20.7848 15.7871 20.8914 15.7413C20.9981 15.6956 21.1129 15.672 21.2289 15.672C21.3449 15.672 21.4597 15.6956 21.5663 15.7413C21.673 15.7871 21.7692 15.8541 21.8491 15.9382C21.929 16.0223 21.991 16.1218 22.0313 16.2306C22.0715 16.3394 22.0892 16.4552 22.0833 16.5711V18.8567C22.0845 19.689 21.7551 20.4876 21.1675 21.0771C20.5799 21.6666 19.7823 21.9985 18.95 22H16.6711C16.4438 22 16.2257 21.9097 16.065 21.7489C15.9042 21.5882 15.8139 21.3701 15.8139 21.1428C15.8139 20.9154 15.9042 20.6974 16.065 20.5366C16.2257 20.3759 16.4438 20.2856 16.6711 20.2856H18.95ZM18.95 3.71444C19.7367 3.71444 20.3744 4.35333 20.3744 5.14333V7.42889C20.3685 7.54476 20.3863 7.66063 20.4265 7.76944C20.4668 7.87825 20.5288 7.97773 20.6087 8.06183C20.6886 8.14594 20.7848 8.21291 20.8914 8.25867C20.9981 8.30443 21.1129 8.32803 21.2289 8.32803C21.3449 8.32803 21.4597 8.30443 21.5663 8.25867C21.673 8.21291 21.7692 8.14594 21.8491 8.06183C21.929 7.97773 21.991 7.87825 22.0313 7.76944C22.0715 7.66063 22.0892 7.54476 22.0833 7.42889V5.14333C22.0845 4.31104 21.7551 3.51235 21.1675 2.92289C20.5799 2.33344 19.7823 2.00147 18.95 2H16.6711C16.4438 2 16.2257 2.09031 16.065 2.25107C15.9042 2.41184 15.8139 2.62987 15.8139 2.85722C15.8139 3.08457 15.9042 3.30261 16.065 3.46337C16.2257 3.62413 16.4438 3.71444 16.6711 3.71444H18.95ZM5.27445 20.2856C5.08709 20.2853 4.90163 20.2481 4.72865 20.1761C4.55567 20.1041 4.39856 19.9988 4.26629 19.8661C4.13402 19.7334 4.02918 19.576 3.95775 19.4028C3.88632 19.2296 3.84971 19.044 3.85 18.8567V16.5711C3.85591 16.4552 3.83819 16.3394 3.79792 16.2306C3.75765 16.1218 3.69567 16.0223 3.61574 15.9382C3.53582 15.8541 3.43963 15.7871 3.33301 15.7413C3.22639 15.6956 3.11158 15.672 2.99556 15.672C2.87953 15.672 2.76472 15.6956 2.6581 15.7413C2.55149 15.7871 2.45529 15.8541 2.37537 15.9382C2.29544 16.0223 2.23346 16.1218 2.19319 16.2306C2.15292 16.3394 2.1352 16.4552 2.14111 16.5711V18.8567C2.13993 19.689 2.46935 20.4876 3.05693 21.0771C3.64452 21.6666 4.44215 21.9985 5.27445 22H7.55333C7.78068 22 7.99872 21.9097 8.15948 21.7489C8.32024 21.5882 8.41056 21.3701 8.41056 21.1428C8.41056 20.9154 8.32024 20.6974 8.15948 20.5366C7.99872 20.3759 7.78068 20.2856 7.55333 20.2856H5.27445ZM5.27445 3.71444C4.48778 3.71444 3.85 4.35333 3.85 5.14333V7.42889C3.85591 7.54476 3.83819 7.66063 3.79792 7.76944C3.75765 7.87825 3.69567 7.97773 3.61574 8.06183C3.53582 8.14594 3.43963 8.21291 3.33301 8.25867C3.22639 8.30443 3.11158 8.32803 2.99556 8.32803C2.87953 8.32803 2.76472 8.30443 2.6581 8.25867C2.55149 8.21291 2.45529 8.14594 2.37537 8.06183C2.29544 7.97773 2.23346 7.87825 2.19319 7.76944C2.15292 7.66063 2.1352 7.54476 2.14111 7.42889V5.14333C2.13993 4.31104 2.46935 3.51235 3.05693 2.92289C3.64452 2.33344 4.44215 2.00147 5.27445 2H7.55333C7.78068 2 7.99872 2.09031 8.15948 2.25107C8.32024 2.41184 8.41056 2.62987 8.41056 2.85722C8.41056 3.08457 8.32024 3.30261 8.15948 3.46337C7.99872 3.62413 7.78068 3.71444 7.55333 3.71444H5.27445ZM23.2233 12C23.2235 12.1124 23.2015 12.2238 23.1585 12.3277C23.1156 12.4317 23.0526 12.5261 22.9731 12.6057C22.8937 12.6853 22.7993 12.7484 22.6954 12.7914C22.5916 12.8345 22.4802 12.8567 22.3678 12.8567H1.85667C1.62946 12.8567 1.41157 12.7664 1.25091 12.6058C1.09026 12.4451 1 12.2272 1 12C1 11.7728 1.09026 11.5549 1.25091 11.3942C1.41157 11.2336 1.62946 11.1433 1.85667 11.1433H22.3678C22.4802 11.1433 22.5916 11.1655 22.6954 11.2086C22.7993 11.2516 22.8937 11.3147 22.9731 11.3943C23.0526 11.4739 23.1156 11.5683 23.1585 11.6723C23.2015 11.7762 23.2235 11.8876 23.2233 12Z" fill="#766F6A"/>
</svg>
