<svg width="25" height="24" viewBox="0 0 25 24" fill="none" xmlns="http://www.w3.org/2000/svg">
<path d="M2.41659 6.95784V1.91659H7.45784C8.06462 1.91659 8.0637 1 7.45784 1H1.9583C1.83675 1 1.72018 1.04828 1.63423 1.13423C1.54828 1.22018 1.5 1.33675 1.5 1.4583V6.95784C1.5 7.56462 2.41659 7.5637 2.41659 6.95784ZM7.45784 22.0834H2.41659V17.0422C2.41659 16.4354 1.5 16.4363 1.5 17.0422V22.5417C1.5 22.6633 1.54828 22.7798 1.63423 22.8658C1.72018 22.9517 1.83675 23 1.9583 23H7.45784C8.06462 23 8.0637 22.0834 7.45784 22.0834ZM23.4982 1.4583C23.4982 1.33675 23.4499 1.22018 23.3639 1.13423C23.278 1.04828 23.1614 1 23.0399 1H17.5403C16.9335 1 16.9345 1.91659 17.5403 1.91659H22.5816V6.95784C22.5816 7.56462 23.4982 7.5637 23.4982 6.95784V1.4583ZM22.5816 17.0422V22.0834H17.5403C16.9335 22.0834 16.9345 23 17.5403 23H23.0399C23.1614 23 23.278 22.9517 23.3639 22.8658C23.4499 22.7798 23.4982 22.6633 23.4982 22.5417V17.0422C23.4982 16.4354 22.5816 16.4363 22.5816 17.0422Z" fill="#766F6A"/>
<path d="M17.875 11.25C18.0821 11.25 18.25 11.4179 18.25 11.625C18.25 11.8321 18.0821 12 17.875 12H13V16.875C13 17.0821 12.8321 17.25 12.625 17.25C12.4179 17.25 12.25 17.0821 12.25 16.875V12H7.375C7.16789 12 7 11.8321 7 11.625C7 11.4179 7.16789 11.25 7.375 11.25H12.25V6.375C12.25 6.16789 12.4179 6 12.625 6C12.8321 6 13 6.16789 13 6.375V11.25H17.875Z" fill="#766F6A" stroke="#766F6A" stroke-width="0.2"/>
</svg>
