<svg width="49" height="48" viewBox="0 0 49 48" fill="none" xmlns="http://www.w3.org/2000/svg">
<path d="M48.5 24C48.5 25.05 48.5 25.95 48.35 27L47.9 29.7C46.7 34.8 43.85 39.15 39.95 42.45C39.8 42.6 39.5 42.75 39.35 42.9C38 43.95 36.5 44.85 34.85 45.6L33.95 46.05C32.6 46.65 31.4 47.1 29.9 47.4C29.15 47.55 28.55 47.7 27.8 47.85C26.6 48 25.55 48 24.5 48C11.3 48 0.5 37.2 0.5 24C0.5 10.8 11.3 0 24.5 0C37.7 0 48.5 10.8 48.5 24Z" fill="#EF4639"/>
<path d="M48.35 27L47.9 29.6999C46.7 34.7999 43.85 39.15 39.95 42.45C39.8 42.6 39.5 42.75 39.35 42.9C38 43.95 36.5 44.85 34.85 45.6L33.95 46.05C32.6 46.65 31.4 47.1 29.9 47.4C29.15 47.55 28.55 47.7 27.8 47.85L14.3 34.35C13.4 33.45 13.4 31.95 14.3 30.9L21.2 24L14.3 17.1C13.4 16.2 13.4 14.7 14.3 13.65C15.2 12.75 16.7 12.75 17.75 13.65L18.05 13.95L18.65 14.55L20.6 16.5L21.2 17.1L23.15 19.05L23.75 19.65L24.8 20.7L31.4 13.5C32.3 12.6 33.8 12.6 34.85 13.5L48.35 27Z" fill="#E2382F"/>
<path d="M34.85 30.75C35.75 31.65 35.75 33.15 34.85 34.1999C34.4 34.65 33.8 34.9499 33.2 34.9499C32.6 34.9499 32 34.65 31.55 34.1999L24.5 27.3L17.6 34.1999C17.15 34.65 16.55 34.9499 15.95 34.9499C15.35 34.9499 14.75 34.65 14.3 34.1999C13.4 33.2999 13.4 31.8 14.3 30.75L21.2 23.85L14.3 16.95C13.4 16.05 13.4 14.55 14.3 13.5C15.2 12.6 16.7 12.6 17.75 13.5L24.65 20.4L31.4 13.5C32.3 12.6 33.8 12.6 34.85 13.5C35.75 14.4 35.75 15.9 34.85 16.95L27.95 23.85L34.85 30.75Z" fill="white"/>
</svg>
