<svg width="24" height="24" viewBox="0 0 24 24" fill="none" xmlns="http://www.w3.org/2000/svg">
<circle opacity="0.15" cx="12" cy="12" r="12" fill="#FA2B39"/>
<g clip-path="url(#clip0_8049_6887)">
<path d="M11.9997 5.3999C8.35182 5.3999 5.39966 8.35178 5.39966 11.9999C5.39966 15.6478 8.35153 18.5999 11.9997 18.5999C15.6475 18.5999 18.5997 15.648 18.5997 11.9999C18.5997 8.35204 15.6478 5.3999 11.9997 5.3999ZM11.9997 17.5687C8.92179 17.5687 6.43091 15.078 6.43091 11.9999C6.43091 8.92201 8.92156 6.43115 11.9997 6.43115C15.0775 6.43115 17.5684 8.9218 17.5684 11.9999C17.5684 15.0778 15.0778 17.5687 11.9997 17.5687Z" fill="white"/>
<path d="M11.9997 17.5687C8.92179 17.5687 6.43091 15.078 6.43091 11.9999C6.43091 8.92201 8.92156 6.43115 11.9997 6.43115C15.0775 6.43115 17.5684 8.9218 17.5684 11.9999C17.5684 15.0778 15.0778 17.5687 11.9997 17.5687Z" fill="#FA2634"/>
<path d="M14.2581 13.5286L12.7292 11.9997L14.2581 10.4708C14.4594 10.2695 14.4595 9.94299 14.2581 9.74161C14.0567 9.54023 13.7302 9.54026 13.5289 9.74161L12 11.2705L10.4711 9.74161C10.2698 9.54023 9.94325 9.54023 9.7419 9.74161C9.54055 9.94299 9.54055 10.2695 9.74193 10.4708L11.2708 11.9997L9.74193 13.5286C9.54055 13.7299 9.54052 14.0564 9.7419 14.2578C9.94333 14.4592 10.2698 14.4591 10.4711 14.2578L12 12.7289L13.5289 14.2578C13.7302 14.4591 14.0567 14.4591 14.2581 14.2578C14.4595 14.0564 14.4595 13.7299 14.2581 13.5286Z" fill="white"/>
</g>
<defs>
<clipPath id="clip0_8049_6887">
<rect width="13.2" height="13.2" fill="white" transform="translate(5.39966 5.3999)"/>
</clipPath>
</defs>
</svg>
