<svg width="32" height="32" viewBox="0 0 32 32" fill="none" xmlns="http://www.w3.org/2000/svg">
<rect width="32" height="32" rx="6" fill="#AE6F28"/>
<g clip-path="url(#clip0_3597_43544)">
<path d="M12.6501 7H8.87978C8.63286 6.99975 8.3883 7.04819 8.16012 7.14257C7.93194 7.23695 7.72461 7.3754 7.55001 7.55001C7.3754 7.72461 7.23695 7.93194 7.14257 8.16012C7.04819 8.3883 6.99975 8.63286 7 8.87978V12.6501C6.99948 13.1497 7.19705 13.6291 7.54941 13.9833C7.90178 14.3375 8.38018 14.5375 8.87978 14.5396H12.6501C12.8983 14.5398 13.1441 14.4911 13.3734 14.3963C13.6028 14.3014 13.8112 14.1622 13.9867 13.9867C14.1622 13.8112 14.3014 13.6028 14.3963 13.3734C14.4911 13.1441 14.5398 12.8983 14.5396 12.6501V8.87978C14.5375 8.38018 14.3375 7.90178 13.9833 7.54941C13.6291 7.19705 13.1497 6.99948 12.6501 7ZM23.1202 7H19.3499C18.8503 6.99948 18.3709 7.19705 18.0167 7.54941C17.6625 7.90178 17.4625 8.38018 17.4604 8.87978V12.6501C17.4607 13.1511 17.6598 13.6316 18.0141 13.9859C18.3684 14.3402 18.8489 14.5393 19.3499 14.5396H23.1202C23.6198 14.5375 24.0982 14.3375 24.4506 13.9833C24.8029 13.6291 25.0005 13.1497 25 12.6501V8.87978C25.0003 8.63286 24.9518 8.3883 24.8574 8.16012C24.7631 7.93194 24.6246 7.72461 24.45 7.55001C24.2754 7.3754 24.0681 7.23695 23.8399 7.14257C23.6117 7.04819 23.3671 6.99975 23.1202 7ZM12.6501 17.4595H8.87978C8.38025 17.4623 7.90215 17.6627 7.54992 18.0169C7.1977 18.3712 6.99999 18.8504 7 19.3499V23.1202C6.99975 23.3671 7.04819 23.6117 7.14257 23.8399C7.23695 24.0681 7.3754 24.2754 7.55001 24.45C7.72461 24.6246 7.93194 24.7631 8.16012 24.8574C8.3883 24.9518 8.63286 25.0003 8.87978 25H12.6501C13.1497 25.0005 13.6291 24.8029 13.9833 24.4506C14.3375 24.0982 14.5375 23.6198 14.5396 23.1202V19.3499C14.5398 19.1017 14.4911 18.8559 14.3963 18.6266C14.3014 18.3972 14.1622 18.1888 13.9867 18.0133C13.8112 17.8378 13.6028 17.6986 13.3734 17.6037C13.1441 17.5089 12.8983 17.4592 12.6501 17.4595ZM21.2297 17.4595C20.2298 17.4595 19.2708 17.8567 18.5637 18.5637C17.8567 19.2708 17.4595 20.2298 17.4595 21.2297C17.4595 22.2297 17.8567 23.1886 18.5637 23.8957C19.2708 24.6028 20.2298 25 21.2297 25C22.2297 25 23.1886 24.6028 23.8957 23.8957C24.6028 23.1886 25 22.2297 25 21.2297C25 20.2298 24.6028 19.2708 23.8957 18.5637C23.1886 17.8567 22.2297 17.4595 21.2297 17.4595Z" fill="white" stroke="white" stroke-width="0.8" stroke-linecap="round" stroke-linejoin="round"/>
</g>
<defs>
<clipPath id="clip0_3597_43544">
<rect width="20" height="20" fill="white" transform="translate(6 6)"/>
</clipPath>
</defs>
</svg>
