<svg width="8" height="6" viewBox="0 0 8 6" fill="none" xmlns="http://www.w3.org/2000/svg">
<path fill-rule="evenodd" clip-rule="evenodd" d="M4.41221 5.16239C4.30282 5.27175 4.15447 5.33318 3.99979 5.33318C3.84511 5.33318 3.69677 5.27175 3.58738 5.16239L0.28746 1.86248C0.231746 1.80867 0.187306 1.7443 0.156734 1.67313C0.126162 1.60196 0.11007 1.52541 0.109397 1.44796C0.108724 1.37051 0.123483 1.29369 0.152814 1.222C0.182144 1.15031 0.225459 1.08518 0.28023 1.03041C0.335 0.975642 0.40013 0.932327 0.47182 0.902997C0.543509 0.873666 0.620323 0.858907 0.697777 0.85958C0.775232 0.860253 0.851777 0.876345 0.922946 0.906917C0.994115 0.937489 1.05848 0.981928 1.11229 1.03764L3.99979 3.92514L6.88729 1.03764C6.99731 0.931384 7.14466 0.872587 7.29761 0.873916C7.45056 0.875245 7.59687 0.936594 7.70502 1.04475C7.81318 1.1529 7.87452 1.29921 7.87585 1.45216C7.87718 1.60511 7.81839 1.75246 7.71213 1.86248L4.41221 5.16239Z" fill="white"/>
</svg>
