<svg width="8" height="6" viewBox="0 0 8 6" fill="none" xmlns="http://www.w3.org/2000/svg">
<path fill-rule="evenodd" clip-rule="evenodd" d="M4.41221 5.16245C4.30282 5.27181 4.15447 5.33325 3.99979 5.33325C3.84511 5.33325 3.69677 5.27181 3.58738 5.16245L0.28746 1.86254C0.231746 1.80873 0.187306 1.74436 0.156734 1.67319C0.126162 1.60202 0.11007 1.52548 0.109397 1.44802C0.108724 1.37057 0.123483 1.29375 0.152814 1.22206C0.182144 1.15037 0.225459 1.08524 0.28023 1.03047C0.335 0.975703 0.40013 0.932388 0.47182 0.903058C0.543509 0.873727 0.620323 0.858968 0.697777 0.859641C0.775232 0.860314 0.851777 0.876406 0.922946 0.906978C0.994115 0.93755 1.05848 0.981989 1.11229 1.0377L3.99979 3.9252L6.88729 1.0377C6.99731 0.931445 7.14466 0.872648 7.29761 0.873977C7.45056 0.875306 7.59687 0.936655 7.70502 1.04481C7.81318 1.15296 7.87452 1.29927 7.87585 1.45222C7.87718 1.60517 7.81839 1.75252 7.71213 1.86254L4.41221 5.16245Z" fill="black"/>
</svg>
