<svg width="40" height="40" viewBox="0 0 40 40" fill="none" xmlns="http://www.w3.org/2000/svg">
<path d="M0 19.9963C0 8.95267 8.95267 0 19.9963 0C31.04 0 39.9927 8.95267 39.9927 19.9963C39.9927 31.04 31.04 39.9927 19.9963 39.9927C8.95267 39.9927 0 31.04 0 19.9963Z" fill="#F7E4B6"/>
<path d="M19.9866 9.99652C19.4866 9.99652 18.9866 10.1865 18.5766 10.5865L10.5766 18.5865C9.78658 19.3665 9.78658 20.6265 10.5766 21.4065C11.3566 22.1965 12.6166 22.1965 13.3966 21.4065L13.9866 20.8265V27.9965C13.9866 29.0965 14.8866 29.9965 15.9866 29.9965H23.9866C25.0866 29.9965 25.9866 29.0965 25.9866 27.9965V20.8265L26.5766 21.4065C27.3566 22.1965 28.6166 22.1965 29.3966 21.4065C30.1866 20.6265 30.1866 19.3665 29.3966 18.5865L21.3966 10.5865C20.9866 10.1865 20.4866 9.99652 19.9866 9.99652Z" fill="#AE6F28"/>
</svg>
