<svg width="17" height="17" viewBox="0 0 17 17" fill="none" xmlns="http://www.w3.org/2000/svg">
<path d="M15.0519 8.50147H6.30046M3.21142 8.50147H1.94775M3.21142 8.50147C3.21142 8.09193 3.37411 7.69916 3.6637 7.40958C3.95328 7.11999 4.34605 6.9573 4.75559 6.9573C5.16513 6.9573 5.55789 7.11999 5.84748 7.40958C6.13707 7.69916 6.29975 8.09193 6.29975 8.50147C6.29975 8.91101 6.13707 9.30377 5.84748 9.59336C5.55789 9.88295 5.16513 10.0456 4.75559 10.0456C4.34605 10.0456 3.95328 9.88295 3.6637 9.59336C3.37411 9.30377 3.21142 8.91101 3.21142 8.50147ZM15.0519 13.1814H10.9804M10.9804 13.1814C10.9804 13.5911 10.8173 13.9843 10.5277 14.2739C10.238 14.5636 9.84518 14.7263 9.43555 14.7263C9.02601 14.7263 8.63324 14.5629 8.34365 14.2733C8.05407 13.9837 7.89138 13.591 7.89138 13.1814M10.9804 13.1814C10.9804 12.7718 10.8173 12.3793 10.5277 12.0896C10.238 11.8 9.84518 11.6373 9.43555 11.6373C9.02601 11.6373 8.63324 11.7999 8.34365 12.0895C8.05407 12.3791 7.89138 12.7719 7.89138 13.1814M7.89138 13.1814H1.94775M15.0519 3.82151H12.8525M9.7635 3.82151H1.94775M9.7635 3.82151C9.7635 3.41197 9.92619 3.01921 10.2158 2.72962C10.5054 2.44003 10.8981 2.27734 11.3077 2.27734C11.5105 2.27734 11.7113 2.31728 11.8986 2.39489C12.0859 2.47249 12.2562 2.58623 12.3996 2.72962C12.543 2.87301 12.6567 3.04324 12.7343 3.23058C12.8119 3.41793 12.8518 3.61873 12.8518 3.82151C12.8518 4.02429 12.8119 4.22509 12.7343 4.41244C12.6567 4.59978 12.543 4.77001 12.3996 4.9134C12.2562 5.05679 12.0859 5.17053 11.8986 5.24813C11.7113 5.32574 11.5105 5.36568 11.3077 5.36568C10.8981 5.36568 10.5054 5.20299 10.2158 4.9134C9.92619 4.62381 9.7635 4.23105 9.7635 3.82151Z" stroke="#AE6F28" stroke-width="1.2" stroke-miterlimit="10" stroke-linecap="round"/>
</svg>
