<svg width="36" height="40" viewBox="0 0 36 40" fill="none" xmlns="http://www.w3.org/2000/svg">
<path fill-rule="evenodd" clip-rule="evenodd" d="M28.5692 12.2519C29.2123 12.9178 29.5727 13.8152 29.5727 14.7502C29.5727 15.6851 29.2123 16.5825 28.5692 17.2485L24.0357 21.8617C24.0357 21.8754 24.0357 21.8754 24.0223 21.8891L19.8375 26.1465C19.3521 26.6393 18.6967 26.9181 18.0121 26.9233C17.3275 26.9284 16.6682 26.6593 16.1758 26.1739L20.6959 30.7871C21.3484 31.4434 22.2277 31.8113 23.1438 31.8113C24.0598 31.8113 24.9391 31.4434 25.5916 30.7871L35.9999 20.1643V14.0315C35.9999 11.0746 34.5648 8.55578 32.07 7.07734L21.9299 1.10883C19.4217 -0.36961 16.5648 -0.36961 14.07 1.10883L13.7749 1.28679C14.506 0.842031 15.3624 0.660971 16.2065 0.77269C17.0506 0.884409 17.8334 1.28242 18.4292 1.90281L28.5692 12.2519Z" fill="url(#paint0_linear_1877_15244)"/>
<path fill-rule="evenodd" clip-rule="evenodd" d="M13.775 1.27244L3.92996 7.07669C1.43517 8.55513 0 11.0739 0 14.0171V19.8351L10.4084 9.21221C11.0608 8.55594 11.9401 8.18806 12.8562 8.18806C13.7723 8.18806 14.6516 8.55594 15.304 9.21221L19.851 13.8529L24.0224 18.1102C24.5074 18.608 24.7808 19.2808 24.7833 19.9828C24.7858 20.6849 24.5173 21.3597 24.0358 21.8611L28.5693 17.2478C29.2132 16.5796 29.574 15.6799 29.574 14.7427C29.574 13.8055 29.2132 12.9058 28.5693 12.2375L18.4292 1.90215C17.8326 1.28382 17.0509 0.886171 16.208 0.772123C15.365 0.658074 14.5089 0.834131 13.775 1.27244Z" fill="url(#paint1_linear_1877_15244)"/>
<path fill-rule="evenodd" clip-rule="evenodd" d="M10.4083 9.21165L0 19.8345V25.9673C0 28.9242 1.43517 31.443 3.92996 32.9214L14.07 38.89C15.2574 39.6162 16.6157 39.9998 18 39.9998C19.3843 39.9998 20.7426 39.6162 21.93 38.89L22.2116 38.7257C21.4798 39.1629 20.6259 39.3384 19.7852 39.2243C18.9446 39.1103 18.1653 38.7132 17.5708 38.096L7.4307 27.7469C6.78769 27.081 6.42723 26.1836 6.42723 25.2486C6.42723 24.3137 6.78769 23.4162 7.4307 22.7503L11.9508 18.1234H11.9776L16.149 13.8523C16.6431 13.3574 17.3077 13.0801 18 13.0801C18.6923 13.0801 19.3569 13.3574 19.851 13.8523L15.304 9.21165C14.6516 8.55539 13.7723 8.1875 12.8562 8.1875C11.9401 8.1875 11.0608 8.55539 10.4083 9.21165Z" fill="url(#paint2_linear_1877_15244)"/>
<path fill-rule="evenodd" clip-rule="evenodd" d="M7.43072 22.75C6.7877 23.4159 6.42725 24.3133 6.42725 25.2483C6.42725 26.1832 6.7877 27.0807 7.43072 27.7466L17.5708 38.0956C18.1653 38.7129 18.9446 39.11 19.7853 39.224C20.6259 39.3381 21.4798 39.1626 22.2116 38.7254L32.0701 32.9211C34.5649 31.4427 36 28.9239 36 25.967V20.1627L25.5917 30.7856C24.9392 31.4419 24.0599 31.8097 23.1438 31.8097C22.2278 31.8097 21.3485 31.4419 20.696 30.7856L16.1759 26.1723L16.1491 26.1449L11.9777 21.8876C11.4908 21.3916 11.215 20.7198 11.21 20.0178C11.2049 19.3157 11.4711 18.6399 11.9508 18.1367L7.43072 22.75Z" fill="url(#paint3_linear_1877_15244)"/>
<defs>
<linearGradient id="paint0_linear_1877_15244" x1="32.7721" y1="2.38831" x2="12.7505" y2="22.0058" gradientUnits="userSpaceOnUse">
<stop stop-color="#EFC96D"/>
<stop offset="0.55" stop-color="#AE6F28"/>
<stop offset="1" stop-color="#5A2F0E"/>
</linearGradient>
<linearGradient id="paint1_linear_1877_15244" x1="4.40668" y1="5.37829" x2="22.4684" y2="23.0744" gradientUnits="userSpaceOnUse">
<stop stop-color="#EFC96D"/>
<stop offset="0.55" stop-color="#AE6F28"/>
<stop offset="1" stop-color="#5A2F0E"/>
</linearGradient>
<linearGradient id="paint2_linear_1877_15244" x1="4.16983" y1="36.0226" x2="23.4993" y2="17.0844" gradientUnits="userSpaceOnUse">
<stop stop-color="#EFC96D"/>
<stop offset="0.55" stop-color="#AE6F28"/>
<stop offset="1" stop-color="#5A2F0E"/>
</linearGradient>
<linearGradient id="paint3_linear_1877_15244" x1="31.8291" y1="33.6949" x2="13.8001" y2="16.03" gradientUnits="userSpaceOnUse">
<stop stop-color="#EFC96D"/>
<stop offset="0.55" stop-color="#AE6F28"/>
<stop offset="1" stop-color="#5A2F0E"/>
</linearGradient>
</defs>
</svg>
