<svg width="18" height="20" viewBox="0 0 18 20" fill="none" xmlns="http://www.w3.org/2000/svg">
<path d="M2.20247 18.0475H6.64199V11.9426C6.64199 11.6676 6.73538 11.4372 6.92216 11.2512C7.10815 11.0644 7.33862 10.971 7.61358 10.971H11.221C11.496 10.971 11.7268 11.0644 11.9136 11.2512C12.0996 11.4372 12.1926 11.6676 12.1926 11.9426V18.0475H16.6321V7.59566C16.6321 7.47221 16.6053 7.35998 16.5515 7.25897C16.4978 7.15796 16.4245 7.06978 16.3315 6.99443L9.85739 2.1148C9.73394 2.00738 9.58724 1.95367 9.41729 1.95367C9.24734 1.95367 9.10104 2.00738 8.97839 2.1148L2.50309 6.99443C2.4109 7.07138 2.33755 7.15957 2.28304 7.25897C2.22852 7.35837 2.20167 7.4706 2.20247 7.59566V18.0475ZM1 18.0475V7.59566C1 7.28783 1.06894 6.99643 1.20682 6.72147C1.34471 6.4465 1.5347 6.22004 1.7768 6.04207L8.2521 1.1384C8.59119 0.879466 8.97839 0.75 9.41368 0.75C9.84898 0.75 10.2386 0.879466 10.5825 1.1384L17.0578 6.04087C17.3007 6.21883 17.4907 6.4457 17.6278 6.72147C17.7656 6.99643 17.8346 7.28783 17.8346 7.59566V18.0475C17.8346 18.3698 17.7147 18.6508 17.475 18.8905C17.2353 19.1302 16.9544 19.25 16.6321 19.25H11.9617C11.6859 19.25 11.4551 19.157 11.2691 18.971C11.0831 18.7842 10.9901 18.5534 10.9901 18.2784V12.1747H7.84446V18.2784C7.84446 18.5542 7.75147 18.785 7.56549 18.971C7.3795 19.157 7.14903 19.25 6.87407 19.25H2.20247C1.88021 19.25 1.59923 19.1302 1.35954 18.8905C1.11985 18.6508 1 18.3698 1 18.0475Z" fill="#544B45" stroke="#544B45" stroke-width="0.3"/>
</svg>
