<svg width="24" height="24" viewBox="0 0 24 24" fill="none" xmlns="http://www.w3.org/2000/svg">
<path d="M3.69231 5.69231V5C3.5087 5 3.33261 5.07294 3.20277 5.20277C3.07294 5.33261 3 5.5087 3 5.69231H3.69231ZM20.3077 5.69231H21C21 5.5087 20.9271 5.33261 20.7972 5.20277C20.6674 5.07294 20.4913 5 20.3077 5V5.69231ZM3.69231 6.38462H20.3077V5H3.69231V6.38462ZM19.6154 5.69231V16.7692H21V5.69231H19.6154ZM18.4615 17.9231H5.53846V19.3077H18.4615V17.9231ZM4.38462 16.7692V5.69231H3V16.7692H4.38462ZM5.53846 17.9231C4.90154 17.9231 4.38462 17.4062 4.38462 16.7692H3C3 17.4425 3.26744 18.0881 3.7435 18.5642C4.21955 19.0402 4.86522 19.3077 5.53846 19.3077V17.9231ZM19.6154 16.7692C19.6154 17.4062 19.0985 17.9231 18.4615 17.9231V19.3077C19.1348 19.3077 19.7804 19.0402 20.2565 18.5642C20.7326 18.0881 21 17.4425 21 16.7692H19.6154Z" fill="#DEDCDC"/>
<path d="M3.69226 5.69226L12 14L20.3076 5.69226" stroke="#DEDCDC" stroke-width="1.5" stroke-linecap="round" stroke-linejoin="round"/>
</svg>
