<svg width="20" height="22" viewBox="0 0 20 22" fill="none" xmlns="http://www.w3.org/2000/svg">
<path d="M10.104 22H2.34003C2.03116 21.9984 1.72562 21.936 1.44087 21.8164C1.15611 21.6967 0.897711 21.5222 0.680421 21.3026C0.463131 21.0831 0.291207 20.823 0.174466 20.537C0.057724 20.251 -0.00154912 19.9449 3.07707e-05 19.636V2.364C-0.00154912 2.05513 0.057724 1.74897 0.174466 1.46301C0.291207 1.17705 0.463131 0.91688 0.680421 0.697361C0.897711 0.477843 1.15611 0.303273 1.44087 0.183619C1.72562 0.0639657 2.03116 0.00157185 2.34003 0H10.104C10.4129 0.00157185 10.7184 0.0639657 11.0032 0.183619C11.2879 0.303273 11.5463 0.477843 11.7636 0.697361C11.9809 0.91688 12.1529 1.17705 12.2696 1.46301C12.3863 1.74897 12.4456 2.05513 12.444 2.364V3.2C12.444 3.30609 12.4019 3.40783 12.3269 3.48284C12.2519 3.55786 12.1501 3.6 12.044 3.6C11.9379 3.6 11.8362 3.55786 11.7612 3.48284C11.6862 3.40783 11.644 3.30609 11.644 3.2V2.364C11.6456 2.16019 11.607 1.95806 11.5305 1.76915C11.454 1.58025 11.341 1.40827 11.198 1.26304C11.055 1.11781 10.8847 1.00217 10.697 0.922719C10.5094 0.84327 10.3078 0.80157 10.104 0.8H8.50403L8.22403 1.36C8.19079 1.42597 8.13993 1.48144 8.0771 1.52027C8.01426 1.5591 7.9419 1.57978 7.86803 1.58H4.74803C4.67416 1.57978 4.6018 1.5591 4.53896 1.52027C4.47613 1.48144 4.42527 1.42597 4.39203 1.36L4.09203 0.8H2.34003C2.13622 0.80157 1.93471 0.84327 1.74701 0.922719C1.55932 1.00217 1.38911 1.11781 1.2461 1.26304C1.1031 1.40827 0.990102 1.58025 0.913565 1.76915C0.837028 1.95806 0.798449 2.16019 0.800031 2.364V19.636C0.798449 19.8398 0.837028 20.0419 0.913565 20.2308C0.990102 20.4198 1.1031 20.5917 1.2461 20.737C1.38911 20.8822 1.55932 20.9978 1.74701 21.0773C1.93471 21.1567 2.13622 21.1984 2.34003 21.2H10.104C10.3078 21.1984 10.5094 21.1567 10.697 21.0773C10.8847 20.9978 11.055 20.8822 11.198 20.737C11.341 20.5917 11.454 20.4198 11.5305 20.2308C11.607 20.0419 11.6456 19.8398 11.644 19.636V17.6C11.644 17.4939 11.6862 17.3922 11.7612 17.3172C11.8362 17.2421 11.9379 17.2 12.044 17.2C12.1501 17.2 12.2519 17.2421 12.3269 17.3172C12.4019 17.3922 12.444 17.4939 12.444 17.6V19.636C12.4456 19.9449 12.3863 20.251 12.2696 20.537C12.1529 20.823 11.9809 21.0831 11.7636 21.3026C11.5463 21.5222 11.2879 21.6967 11.0032 21.8164C10.7184 21.936 10.4129 21.9984 10.104 22ZM13.044 16.4C11.8573 16.4 10.6973 16.0481 9.71061 15.3888C8.72391 14.7295 7.95488 13.7925 7.50075 12.6961C7.04663 11.5997 6.92781 10.3933 7.15932 9.22946C7.39083 8.06557 7.96227 6.99647 8.80139 6.15736C9.6405 5.31824 10.7096 4.7468 11.8735 4.51529C13.0374 4.28378 14.2438 4.4026 15.3401 4.85672C16.4365 5.31085 17.3736 6.07988 18.0328 7.06658C18.6921 8.05327 19.044 9.21331 19.044 10.4C19.044 11.9913 18.4119 13.5174 17.2867 14.6426C16.1615 15.7679 14.6353 16.4 13.044 16.4ZM13.044 5.2C12.0156 5.2 11.0102 5.50497 10.1551 6.07636C9.29993 6.64774 8.63343 7.45987 8.23986 8.41005C7.84628 9.36022 7.7433 10.4058 7.94395 11.4145C8.14459 12.4232 8.63984 13.3497 9.36707 14.077C10.0943 14.8042 11.0209 15.2994 12.0296 15.5001C13.0383 15.7007 14.0838 15.5977 15.034 15.2042C15.9842 14.8106 16.7963 14.1441 17.3677 13.289C17.9391 12.4338 18.244 11.4285 18.244 10.4C18.244 9.02087 17.6962 7.69823 16.721 6.72304C15.7458 5.74786 14.4232 5.2 13.044 5.2ZM12.92 14.16C12.8139 14.16 12.7122 14.1179 12.6372 14.0428C12.5622 13.9678 12.52 13.8661 12.52 13.76V13.3C12.0018 13.0746 11.558 12.7071 11.24 12.24C11.2038 12.1984 11.1766 12.1498 11.16 12.0972C11.1435 12.0446 11.138 11.9892 11.1439 11.9344C11.1498 11.8796 11.1669 11.8266 11.1943 11.7787C11.2217 11.7308 11.2586 11.6891 11.3029 11.6562C11.3471 11.6233 11.3977 11.5999 11.4514 11.5875C11.5051 11.5751 11.5608 11.5739 11.615 11.584C11.6692 11.5941 11.7207 11.6153 11.7663 11.6463C11.8119 11.6773 11.8506 11.7173 11.88 11.764C12.0163 11.9867 12.1971 12.1787 12.4112 12.3281C12.6253 12.4775 12.868 12.581 13.124 12.632C13.2656 12.6448 13.4083 12.6276 13.5427 12.5814C13.6771 12.5352 13.8003 12.4611 13.904 12.364C13.9744 12.2671 14.0197 12.1543 14.0357 12.0356C14.0518 11.9169 14.0381 11.7961 13.996 11.684C13.996 11.644 13.804 11.284 12.796 10.908C11.068 10.256 11.116 9.176 11.172 8.856C11.2391 8.53144 11.4031 8.23489 11.6423 8.00561C11.8816 7.77632 12.1849 7.62511 12.512 7.572V7.04C12.512 6.93391 12.5542 6.83217 12.6292 6.75716C12.7042 6.68214 12.8059 6.64 12.912 6.64C13.0181 6.64 13.1199 6.68214 13.1949 6.75716C13.2699 6.83217 13.312 6.93391 13.312 7.04V7.572C13.5337 7.58498 13.7503 7.64396 13.9479 7.74519C14.1455 7.84643 14.32 7.98769 14.46 8.16C14.5775 8.33406 14.6537 8.53262 14.6828 8.74057C14.7119 8.94853 14.6932 9.16038 14.628 9.36C14.5943 9.46 14.5223 9.54261 14.4279 9.58981C14.3335 9.63701 14.2243 9.64499 14.124 9.612C14.024 9.57823 13.9414 9.50631 13.8942 9.41191C13.847 9.3175 13.839 9.20826 13.872 9.108C13.895 9.02743 13.9016 8.94305 13.8913 8.8599C13.881 8.77674 13.854 8.69651 13.812 8.624C13.6964 8.51939 13.5601 8.4401 13.412 8.39119C13.2639 8.34229 13.1073 8.32485 12.952 8.34C12.9227 8.34199 12.8933 8.34199 12.864 8.34H12.812C12.6173 8.33676 12.4272 8.39939 12.2726 8.51774C12.1179 8.63609 12.0078 8.80321 11.96 8.992C11.884 9.428 12.3 9.86 13.076 10.152C14.196 10.576 14.592 11.048 14.724 11.352C14.8318 11.6147 14.862 11.9029 14.811 12.1822C14.7599 12.4616 14.6298 12.7204 14.436 12.928C14.1294 13.2157 13.7317 13.3869 13.312 13.412V13.736C13.3153 13.7898 13.3076 13.8438 13.2895 13.8946C13.2713 13.9454 13.2431 13.992 13.2065 14.0316C13.1698 14.0712 13.1256 14.103 13.0764 14.1251C13.0271 14.1471 12.974 14.159 12.92 14.16Z" fill="#544B45"/>
</svg>
