<svg width="21" height="22" viewBox="0 0 21 22" fill="none" xmlns="http://www.w3.org/2000/svg">
<path d="M11.104 22H3.34003C3.03116 21.9984 2.72562 21.936 2.44087 21.8164C2.15611 21.6967 1.89771 21.5222 1.68042 21.3026C1.46313 21.0831 1.29121 20.823 1.17447 20.537C1.05772 20.251 0.998451 19.9449 1.00003 19.636V2.364C0.998451 2.05513 1.05772 1.74897 1.17447 1.46301C1.29121 1.17705 1.46313 0.91688 1.68042 0.697361C1.89771 0.477843 2.15611 0.303273 2.44087 0.183619C2.72562 0.0639657 3.03116 0.00157185 3.34003 0H11.104C11.4129 0.00157185 11.7184 0.0639657 12.0032 0.183619C12.2879 0.303273 12.5463 0.477843 12.7636 0.697361C12.9809 0.91688 13.1529 1.17705 13.2696 1.46301C13.3863 1.74897 13.4456 2.05513 13.444 2.364V3.2C13.444 3.30609 13.4019 3.40783 13.3269 3.48284C13.2519 3.55786 13.1501 3.6 13.044 3.6C12.9379 3.6 12.8362 3.55786 12.7612 3.48284C12.6862 3.40783 12.644 3.30609 12.644 3.2V2.364C12.6456 2.16019 12.607 1.95806 12.5305 1.76915C12.454 1.58025 12.341 1.40827 12.198 1.26304C12.055 1.11781 11.8847 1.00217 11.697 0.922719C11.5094 0.84327 11.3078 0.80157 11.104 0.8H9.50403L9.22403 1.36C9.19079 1.42597 9.13993 1.48144 9.0771 1.52027C9.01426 1.5591 8.9419 1.57978 8.86803 1.58H5.74803C5.67416 1.57978 5.6018 1.5591 5.53896 1.52027C5.47613 1.48144 5.42527 1.42597 5.39203 1.36L5.09203 0.8H3.34003C3.13622 0.80157 2.93471 0.84327 2.74701 0.922719C2.55932 1.00217 2.38911 1.11781 2.2461 1.26304C2.1031 1.40827 1.9901 1.58025 1.91356 1.76915C1.83703 1.95806 1.79845 2.16019 1.80003 2.364V19.636C1.79845 19.8398 1.83703 20.0419 1.91356 20.2308C1.9901 20.4198 2.1031 20.5917 2.2461 20.737C2.38911 20.8822 2.55932 20.9978 2.74701 21.0773C2.93471 21.1567 3.13622 21.1984 3.34003 21.2H11.104C11.3078 21.1984 11.5094 21.1567 11.697 21.0773C11.8847 20.9978 12.055 20.8822 12.198 20.737C12.341 20.5917 12.454 20.4198 12.5305 20.2308C12.607 20.0419 12.6456 19.8398 12.644 19.636V17.6C12.644 17.4939 12.6862 17.3922 12.7612 17.3172C12.8362 17.2421 12.9379 17.2 13.044 17.2C13.1501 17.2 13.2519 17.2421 13.3269 17.3172C13.4019 17.3922 13.444 17.4939 13.444 17.6V19.636C13.4456 19.9449 13.3863 20.251 13.2696 20.537C13.1529 20.823 12.9809 21.0831 12.7636 21.3026C12.5463 21.5222 12.2879 21.6967 12.0032 21.8164C11.7184 21.936 11.4129 21.9984 11.104 22ZM14.044 16.4C12.8573 16.4 11.6973 16.0481 10.7106 15.3888C9.72391 14.7295 8.95488 13.7925 8.50075 12.6961C8.04663 11.5997 7.92781 10.3933 8.15932 9.22946C8.39083 8.06557 8.96227 6.99647 9.80139 6.15736C10.6405 5.31824 11.7096 4.7468 12.8735 4.51529C14.0374 4.28378 15.2438 4.4026 16.3401 4.85672C17.4365 5.31085 18.3736 6.07988 19.0328 7.06658C19.6921 8.05327 20.044 9.21331 20.044 10.4C20.044 11.9913 19.4119 13.5174 18.2867 14.6426C17.1615 15.7679 15.6353 16.4 14.044 16.4ZM14.044 5.2C13.0156 5.2 12.0102 5.50497 11.1551 6.07636C10.2999 6.64774 9.63343 7.45987 9.23986 8.41005C8.84628 9.36022 8.7433 10.4058 8.94395 11.4145C9.14459 12.4232 9.63984 13.3497 10.3671 14.077C11.0943 14.8042 12.0209 15.2994 13.0296 15.5001C14.0383 15.7007 15.0838 15.5977 16.034 15.2042C16.9842 14.8106 17.7963 14.1441 18.3677 13.289C18.9391 12.4338 19.244 11.4285 19.244 10.4C19.244 9.02087 18.6962 7.69823 17.721 6.72304C16.7458 5.74786 15.4232 5.2 14.044 5.2ZM13.92 14.16C13.8139 14.16 13.7122 14.1179 13.6372 14.0428C13.5622 13.9678 13.52 13.8661 13.52 13.76V13.3C13.0018 13.0746 12.558 12.7071 12.24 12.24C12.2038 12.1984 12.1766 12.1498 12.16 12.0972C12.1435 12.0446 12.138 11.9892 12.1439 11.9344C12.1498 11.8796 12.1669 11.8266 12.1943 11.7787C12.2217 11.7308 12.2586 11.6891 12.3029 11.6562C12.3471 11.6233 12.3977 11.5999 12.4514 11.5875C12.5051 11.5751 12.5608 11.5739 12.615 11.584C12.6692 11.5941 12.7207 11.6153 12.7663 11.6463C12.8119 11.6773 12.8506 11.7173 12.88 11.764C13.0163 11.9867 13.1971 12.1787 13.4112 12.3281C13.6253 12.4775 13.868 12.581 14.124 12.632C14.2656 12.6448 14.4083 12.6276 14.5427 12.5814C14.6771 12.5352 14.8003 12.4611 14.904 12.364C14.9744 12.2671 15.0197 12.1543 15.0357 12.0356C15.0518 11.9169 15.0381 11.7961 14.996 11.684C14.996 11.644 14.804 11.284 13.796 10.908C12.068 10.256 12.116 9.176 12.172 8.856C12.2391 8.53144 12.4031 8.23489 12.6423 8.00561C12.8816 7.77632 13.1849 7.62511 13.512 7.572V7.04C13.512 6.93391 13.5542 6.83217 13.6292 6.75716C13.7042 6.68214 13.8059 6.64 13.912 6.64C14.0181 6.64 14.1199 6.68214 14.1949 6.75716C14.2699 6.83217 14.312 6.93391 14.312 7.04V7.572C14.5337 7.58498 14.7503 7.64396 14.9479 7.74519C15.1455 7.84643 15.32 7.98769 15.46 8.16C15.5775 8.33406 15.6537 8.53262 15.6828 8.74057C15.7119 8.94853 15.6932 9.16038 15.628 9.36C15.5943 9.46 15.5223 9.54261 15.4279 9.58981C15.3335 9.63701 15.2243 9.64499 15.124 9.612C15.024 9.57823 14.9414 9.50631 14.8942 9.41191C14.847 9.3175 14.839 9.20826 14.872 9.108C14.895 9.02743 14.9016 8.94305 14.8913 8.8599C14.881 8.77674 14.854 8.69651 14.812 8.624C14.6964 8.51939 14.5601 8.4401 14.412 8.39119C14.2639 8.34229 14.1073 8.32485 13.952 8.34C13.9227 8.34199 13.8933 8.34199 13.864 8.34H13.812C13.6173 8.33676 13.4272 8.39939 13.2726 8.51774C13.1179 8.63609 13.0078 8.80321 12.96 8.992C12.884 9.428 13.3 9.86 14.076 10.152C15.196 10.576 15.592 11.048 15.724 11.352C15.8318 11.6147 15.862 11.9029 15.811 12.1822C15.7599 12.4616 15.6298 12.7204 15.436 12.928C15.1294 13.2157 14.7317 13.3869 14.312 13.412V13.736C14.3153 13.7898 14.3076 13.8438 14.2895 13.8946C14.2713 13.9454 14.2431 13.992 14.2065 14.0316C14.1698 14.0712 14.1256 14.103 14.0764 14.1251C14.0271 14.1471 13.974 14.159 13.92 14.16Z" fill="#5A2F0E" stroke="#5A2F0E" stroke-width="0.3"/>
</svg>
