<svg width="120" height="120" viewBox="0 0 120 120" fill="none" xmlns="http://www.w3.org/2000/svg">
<path d="M60 0.5C92.8609 0.5 119.5 27.1391 119.5 60C119.5 92.8609 92.8609 119.5 60 119.5C27.1391 119.5 0.5 92.8609 0.5 60C0.500002 27.1391 27.1391 0.500002 60 0.5Z" fill="#E7C298" stroke="#F7E4B6"/>
<path d="M59.9999 59.5242C66.344 59.5242 71.4871 54.4074 71.4871 48.0956C71.4871 41.7837 66.344 36.667 59.9999 36.667C53.6557 36.667 48.5127 41.7837 48.5127 48.0956C48.5127 54.4074 53.6557 59.5242 59.9999 59.5242Z" fill="#F8F8FF"/>
<path d="M65.9826 64.2861H54.0168C47.0766 64.2861 41.333 70.0005 41.333 76.905C41.333 78.5717 42.051 80.0004 43.4869 80.7147C45.6407 81.9051 50.427 83.3336 59.9997 83.3336C69.5724 83.3336 74.3585 81.9051 76.5124 80.7147C77.709 80.0004 78.6663 78.5717 78.6663 76.905C78.6663 69.7622 72.9228 64.2861 65.9826 64.2861Z" fill="#F8F8FF"/>
</svg>
