<svg width="56" height="56" viewBox="0 0 56 56" fill="none" xmlns="http://www.w3.org/2000/svg">
  <g filter="url(#filter0_d_6445_15887)">
    <rect width="56" height="56" rx="6" fill="#AE6F28"/>
    <g transform="scale(1.6) translate(-9, -9)">
      <path d="M28.0004 23.6209C25.4932 23.6209 23.4536 21.5812 23.4536 19.0741C23.4536 16.567 25.4932 14.5273 28.0004 14.5273C30.5075 14.5273 32.5471 16.567 32.5471 19.0741C32.5471 21.5812 30.5075 23.6209 28.0004 23.6209ZM28.0004 15.5039C26.0317 15.5039 24.4301 17.1055 24.4301 19.0741C24.4301 21.0428 26.0317 22.6444 28.0004 22.6444C29.969 22.6444 31.5706 21.0428 31.5706 19.0741C31.5706 17.1055 29.969 15.5039 28.0004 15.5039ZM33.7502 33.4727H22.2505C21.0101 33.4727 20.001 32.4635 20.001 31.2231V29.8158C20.001 26.8875 22.3834 24.5051 25.3117 24.5051H30.6889C33.6173 24.5051 35.9997 26.8875 35.9997 29.8158V31.2231C35.9997 32.4635 34.9906 33.4727 33.7502 33.4727ZM25.3117 25.4816C22.9218 25.4816 20.9775 27.4259 20.9775 29.8158V31.2231C20.9775 31.925 21.5486 32.4961 22.2505 32.4961H33.7502C34.4521 32.4961 35.0232 31.925 35.0232 31.2231V29.8158C35.0232 27.4259 33.0789 25.4816 30.689 25.4816H25.3117Z" stroke="white" stroke-width="1.5" stroke-linecap="round" stroke-linejoin="round"/>
    </g>
  </g>
  <defs>
    <filter id="filter0_d_6445_15887" x="0" y="0" width="56" height="56" filterUnits="userSpaceOnUse" color-interpolation-filters="sRGB">
      <feFlood flood-opacity="0" result="BackgroundImageFix"/>
      <feColorMatrix in="SourceAlpha" type="matrix" values="0 0 0 0 0 0 0 0 0 0 0 0 0 0 0 0 0 0 127 0" result="hardAlpha"/>
      <feOffset dy="4"/>
      <feGaussianBlur stdDeviation="6"/>
      <feColorMatrix type="matrix" values="0 0 0 0 0.682353 0 0 0 0 0.435294 0 0 0 0 0.156863 0 0 0 0.2 0"/>
      <feBlend mode="normal" in2="BackgroundImageFix" result="effect1_dropShadow_6445_15887"/>
      <feBlend mode="normal" in="SourceGraphic" in2="effect1_dropShadow_6445_15887" result="shape"/>
    </filter>
  </defs>
</svg>
