<svg width="32" height="32" viewBox="0 0 32 32" fill="none" xmlns="http://www.w3.org/2000/svg">
<rect width="32" height="32" rx="8" fill="#AE6F28"/>
<path d="M23.0925 10.375H20.4088L20.0963 9.4375C19.9456 8.98229 19.6552 8.58621 19.2664 8.30566C18.8775 8.02512 18.4101 7.87441 17.9306 7.875H14.0694C13.59 7.87464 13.1228 8.02544 12.7341 8.30597C12.3454 8.58649 12.055 8.98245 11.9044 9.4375L11.5912 10.375H8.9075C8.30235 10.3757 7.72217 10.6164 7.29426 11.0443C6.86635 11.4722 6.62566 12.0523 6.625 12.6575V21.845C6.62632 22.4497 6.8673 23.0293 7.29514 23.4566C7.72298 23.884 8.30278 24.1243 8.9075 24.125H23.095C23.6997 24.1237 24.2793 23.8827 24.7066 23.4549C25.134 23.027 25.3743 22.4472 25.375 21.8425V12.655C25.3737 12.0503 25.1327 11.4707 24.7049 11.0434C24.277 10.616 23.6972 10.3757 23.0925 10.375ZM24.125 21.8425C24.1247 22.1162 24.0158 22.3787 23.8222 22.5722C23.6287 22.7658 23.3662 22.8747 23.0925 22.875H8.9075C8.63377 22.8747 8.37134 22.7658 8.17778 22.5722C7.98422 22.3787 7.87533 22.1162 7.875 21.8425V12.655C7.87599 12.3817 7.98517 12.1199 8.17866 11.9269C8.37215 11.7339 8.6342 11.6253 8.9075 11.625H12.0419C12.173 11.6249 12.3008 11.5836 12.4071 11.5068C12.5134 11.4301 12.5929 11.3219 12.6344 11.1975L13.09 9.83063C13.1584 9.62503 13.2899 9.44621 13.4657 9.31955C13.6415 9.19289 13.8527 9.12482 14.0694 9.125H17.9306C18.1474 9.12476 18.3587 9.19289 18.5346 9.31968C18.7104 9.44648 18.8418 9.62549 18.91 9.83125L19.3656 11.1975C19.4071 11.3219 19.4866 11.4301 19.5929 11.5068C19.6992 11.5836 19.827 11.6249 19.9581 11.625H23.0925C23.3662 11.6253 23.6287 11.7342 23.8222 11.9278C24.0158 12.1213 24.1247 12.3838 24.125 12.6575V21.8425Z" fill="white"/>
<path d="M16 12.25C15.0729 12.25 14.1666 12.5249 13.3958 13.04C12.6249 13.5551 12.0241 14.2871 11.6693 15.1437C11.3145 16.0002 11.2217 16.9427 11.4026 17.852C11.5834 18.7613 12.0299 19.5965 12.6854 20.2521C13.341 20.9076 14.1762 21.3541 15.0855 21.5349C15.9948 21.7158 16.9373 21.623 17.7938 21.2682C18.6504 20.9134 19.3824 20.3126 19.8975 19.5417C20.4126 18.7709 20.6875 17.8646 20.6875 16.9375C20.6862 15.6947 20.1919 14.5032 19.3131 13.6244C18.4343 12.7456 17.2428 12.2513 16 12.25ZM16 20.375C15.3201 20.375 14.6555 20.1734 14.0902 19.7957C13.5249 19.418 13.0843 18.8811 12.8242 18.253C12.564 17.6249 12.4959 16.9337 12.6286 16.2669C12.7612 15.6001 13.0886 14.9876 13.5693 14.5068C14.0501 14.0261 14.6626 13.6987 15.3294 13.5661C15.9962 13.4334 16.6874 13.5015 17.3155 13.7617C17.9436 14.0218 18.4805 14.4624 18.8582 15.0277C19.2359 15.593 19.4375 16.2576 19.4375 16.9375C19.4365 17.8489 19.074 18.7226 18.4296 19.3671C17.7851 20.0115 16.9114 20.374 16 20.375Z" fill="white"/>
<path d="M22.25 14.125C22.5952 14.125 22.875 13.8452 22.875 13.5C22.875 13.1548 22.5952 12.875 22.25 12.875C21.9048 12.875 21.625 13.1548 21.625 13.5C21.625 13.8452 21.9048 14.125 22.25 14.125Z" fill="white"/>
</svg>
