<svg width="92" height="93" viewBox="0 0 92 93" fill="none" xmlns="http://www.w3.org/2000/svg">
<path d="M29.4412 0.5H33.1212V11.54H29.4412V0.5ZM36.8012 0.5H40.4812V4.18141H36.8012V0.5ZM44.1612 0.5H58.8812V15.22H62.5612V18.9H47.8412V15.22H55.2012V7.86H51.5197V4.18141H47.8412V7.86H44.1612V0.5ZM-0.000244141 0.5V26.26H25.7598V0.5H-0.000244141ZM22.0812 22.5814H3.68117V4.18141H22.0812V22.5814ZM66.2412 0.5V26.26H92.0026V0.5H66.2412ZM88.3226 22.5814H69.9212V4.18141H88.3226V22.5814Z" fill="black"/>
<path d="M7.3584 7.85938H18.3984V18.8994H7.3584V7.85938ZM40.4798 7.85938H44.1612V11.5394H40.4798V7.85938ZM73.5998 7.85938H84.6412V18.8994H73.5998V7.85938ZM33.1184 11.5394H40.4798V15.2194H36.7998V18.8994H40.4798V26.2594H44.1598V33.6194H40.4798V29.9408H36.7998V22.5808H33.1184V29.9408H36.7998V33.6194H29.4398V18.8994H33.1184V11.5394Z" fill="black"/>
<path d="M44.1598 22.582H47.8398V26.262H44.1598V22.582ZM51.5184 22.582H55.1998V26.262H51.5184V22.582ZM58.8798 22.582H62.5612V26.262H58.8798V22.582ZM7.3584 29.942H18.3984V33.6206H22.0798V37.302H18.3984V40.982H14.7184V33.6206H7.3584V29.942ZM22.0798 29.942H25.7598V33.622L22.0798 33.6206V29.942ZM47.8398 29.942H51.5198V33.622H47.8398V29.942ZM55.1998 29.942H58.8798V37.302H55.1998V29.942ZM62.5598 29.942H73.5998V37.302H69.9198V33.6206H62.5598V29.942ZM80.9598 29.942H92.0012V33.6206H84.6412V37.302H92.0012V48.342H80.9598V44.662H84.6412V40.982H77.2798V37.302H80.9598V29.942Z" fill="black"/>
<path d="M25.7585 33.6172H29.44V40.9786H36.8V33.6172H40.48V37.2986H51.5185V40.9786H40.48V44.6586H33.1185V48.3386H14.7185V52.0172H11.0385V40.9786H14.7185V44.6586H25.7585V40.9786H22.08V37.2986H25.7585V33.6172ZM7.35854 37.2986H11.0385V40.9786H7.35854V37.2986ZM58.88 37.2986H62.5614V40.9786H58.88V37.2986ZM-0.00146484 40.9786H7.35854V48.3386H3.67995V63.0586H-0.00146484V40.9786ZM51.5185 40.9786H55.2V44.66H51.5185V40.9786Z" fill="black"/>
<path d="M44.1598 44.6602H51.5184V52.0187H47.8398V48.3402H44.1598V44.6602ZM58.8798 44.6602H62.5612V48.3402H58.8798V44.6602ZM77.2798 48.3402H80.9612V52.0202H77.2798V48.3402ZM7.3584 52.0187H11.0384V55.7002H18.3984V59.3802H14.7184V63.0602H11.0384V59.3802H7.3584V52.0187ZM22.0798 52.0187H25.7598V55.7002H22.0798V52.0187Z" fill="black"/>
<path d="M80.96 52.0195H92.0014V63.0609H88.3214V55.7009H80.96V52.0195Z" fill="black"/>
<path d="M77.2798 59.3808V52.0208H73.5998V48.3408H69.9198V44.6608H73.5998V48.3408H77.2798V40.9808H69.9198V37.3008H66.2398V40.9808H62.5598V44.6608H66.2398V52.0194H69.9198V59.3794H58.8798V55.7008H66.2398V52.0194H58.8798V48.3394H55.1998V52.0194H51.5184V59.3794H47.8384V63.0608H44.1584V59.3808L47.8384 59.3794V52.0208H44.1584V55.7008H40.4799V52.0194H44.1598V48.3394H33.1184V52.0194H36.7999V55.7008H25.7584V59.3808H18.3984V63.0608H29.4399V59.3808H40.4799V63.0608H29.4399V66.7408H36.7999V70.4208H33.1184V74.1008H29.4384V85.1422H33.1184V81.4608H36.7999V74.1008H40.4799V70.4208H44.1598V66.7408H51.5184V63.0608H55.1998V70.4208H58.8798V77.7808H55.1998V70.4208H47.8398V74.1008H40.4799V81.4608H44.1598V77.7808H51.5184V81.4608H58.8784V85.1422H62.5598V81.4608H66.2398V77.7808H73.5998V81.4608H80.9598V77.7808H77.2798V74.1008H80.9598V70.4208H77.2798V66.7408H80.9598V63.0608H84.6413V59.3808H77.2798ZM73.5998 74.1008H62.5598V63.0608H73.5998V74.1008ZM84.6413 63.0608H88.3213V66.7408H92.0013V70.4208H84.6413V63.0608Z" fill="black"/>
<path d="M66.24 66.7422H69.9214V70.4236H66.24V66.7422ZM-0.00146484 66.7422V92.5036H25.7585V66.7422H-0.00146484ZM22.08 88.8236H3.67995V70.4222H22.08V88.8236Z" fill="black"/>
<path d="M7.3584 74.1016H18.3984V85.143H7.3584V74.1016ZM80.9598 74.1016H84.6412V77.7816H80.9598V74.1016ZM88.3212 77.7816H92.0012V92.503H77.2798V88.823H88.3212V77.7816ZM44.1598 81.4616H51.5184V85.143H44.1598V81.4616ZM66.2398 81.4616H73.5998V85.143H77.2798V88.823H69.9198V92.503H62.5598V88.823H66.2398V81.4616Z" fill="black"/>
<path d="M80.96 81.4609H84.6414V85.1423H80.96V81.4609ZM40.48 85.1423H44.1614V88.8238H40.48V85.1423ZM51.5186 88.8224H58.8786V92.5023H51.5186V88.8224Z" fill="black"/>
</svg>
