<svg width="12" height="2" viewBox="0 0 12 2" fill="none" xmlns="http://www.w3.org/2000/svg">
<mask id="path-1-inside-1_4867_44888" fill="white">
<path d="M11 0C11.2652 0 11.5195 0.105432 11.707 0.292969C11.8946 0.480505 12 0.734784 12 1C12 1.26522 11.8946 1.51949 11.707 1.70703C11.5195 1.89457 11.2652 2 11 2H1C0.734784 2 0.480505 1.89457 0.292969 1.70703C0.105432 1.51949 0 1.26522 0 1C0 0.734784 0.105432 0.480505 0.292969 0.292969C0.480505 0.105432 0.734784 0 1 0H11Z"/>
</mask>
<path d="M11 0C11.2652 0 11.5195 0.105432 11.707 0.292969C11.8946 0.480505 12 0.734784 12 1C12 1.26522 11.8946 1.51949 11.707 1.70703C11.5195 1.89457 11.2652 2 11 2H1C0.734784 2 0.480505 1.89457 0.292969 1.70703C0.105432 1.51949 0 1.26522 0 1C0 0.734784 0.105432 0.480505 0.292969 0.292969C0.480505 0.105432 0.734784 0 1 0H11Z" fill="#544B45"/>
<path d="M11.707 0.292969L11.5303 0.469745V0.469745L11.707 0.292969ZM0.292969 1.70703L0.116192 1.88381L0.116192 1.88381L0.292969 1.70703ZM0.292969 0.292969L0.116192 0.116192L0.116192 0.116192L0.292969 0.292969ZM11 0V0.25C11.1988 0.25 11.3896 0.329045 11.5303 0.469745L11.707 0.292969L11.8838 0.116192C11.6494 -0.11818 11.3316 -0.25 11 -0.25V0ZM11.707 0.292969L11.5303 0.469745C11.671 0.610446 11.75 0.801156 11.75 1H12H12.25C12.25 0.668411 12.1182 0.350564 11.8838 0.116192L11.707 0.292969ZM12 1H11.75C11.75 1.19884 11.671 1.38955 11.5303 1.53025L11.707 1.70703L11.8838 1.88381C12.1182 1.64944 12.25 1.33159 12.25 1H12ZM11.707 1.70703L11.5303 1.53025C11.3896 1.67096 11.1988 1.75 11 1.75V2V2.25C11.3316 2.25 11.6494 2.11818 11.8838 1.88381L11.707 1.70703ZM11 2V1.75H1V2V2.25H11V2ZM1 2V1.75C0.801156 1.75 0.610446 1.67096 0.469745 1.53025L0.292969 1.70703L0.116192 1.88381C0.350564 2.11818 0.668411 2.25 1 2.25V2ZM0.292969 1.70703L0.469745 1.53025C0.329045 1.38955 0.25 1.19884 0.25 1H0H-0.25C-0.25 1.33159 -0.11818 1.64944 0.116192 1.88381L0.292969 1.70703ZM0 1H0.25C0.25 0.801156 0.329045 0.610446 0.469745 0.469745L0.292969 0.292969L0.116192 0.116192C-0.11818 0.350564 -0.25 0.668411 -0.25 1H0ZM0.292969 0.292969L0.469745 0.469745C0.610446 0.329045 0.801156 0.25 1 0.25V0V-0.25C0.668411 -0.25 0.350564 -0.11818 0.116192 0.116192L0.292969 0.292969ZM1 0V0.25H11V0V-0.25H1V0Z" fill="white" mask="url(#path-1-inside-1_4867_44888)"/>
</svg>
