<svg width="26" height="26" viewBox="0 0 26 26" fill="none" xmlns="http://www.w3.org/2000/svg">
<path d="M20.5833 4.33325H18.4167C18.1293 4.33325 17.8538 4.44739 17.6506 4.65055C17.4475 4.85372 17.3333 5.12927 17.3333 5.41659C17.3333 5.7039 17.4475 5.97945 17.6506 6.18262C17.8538 6.38578 18.1293 6.49992 18.4167 6.49992H19.5V19.4999H18.4167C18.1293 19.4999 17.8538 19.6141 17.6506 19.8172C17.4475 20.0204 17.3333 20.2959 17.3333 20.5833C17.3333 20.8706 17.4475 21.1461 17.6506 21.3493C17.8538 21.5524 18.1293 21.6666 18.4167 21.6666H20.5833C20.8707 21.6666 21.1462 21.5524 21.3494 21.3493C21.5525 21.1461 21.6667 20.8706 21.6667 20.5833V5.41659C21.6667 5.12927 21.5525 4.85372 21.3494 4.65055C21.1462 4.44739 20.8707 4.33325 20.5833 4.33325ZM12.7833 8.01659C12.6109 7.78673 12.3543 7.63477 12.0699 7.59414C11.7854 7.55351 11.4965 7.62753 11.2667 7.79992C11.0368 7.97231 10.8849 8.22895 10.8442 8.51338C10.8036 8.79781 10.8776 9.08673 11.05 9.31659L13 11.9166H4.33333C4.04602 11.9166 3.77047 12.0307 3.5673 12.2339C3.36414 12.437 3.25 12.7126 3.25 12.9999C3.25 13.2872 3.36414 13.5628 3.5673 13.766C3.77047 13.9691 4.04602 14.0833 4.33333 14.0833H13.0975L11.2342 16.7266C11.151 16.843 11.0918 16.9748 11.0599 17.1142C11.0279 17.2537 11.0239 17.3981 11.0481 17.5391C11.0723 17.6801 11.1241 17.8149 11.2007 17.9358C11.2773 18.0567 11.377 18.1611 11.4942 18.2433C11.6783 18.3718 11.8979 18.44 12.1225 18.4383C12.2944 18.4375 12.4636 18.3958 12.6162 18.3167C12.7687 18.2375 12.9003 18.1233 13 17.9833L16.055 13.6499C16.1906 13.4644 16.2636 13.2405 16.2636 13.0108C16.2636 12.781 16.1906 12.5571 16.055 12.3716L12.7833 8.01659Z" fill="#1C1F21"/>
</svg>
