<svg width="172" height="163" viewBox="0 0 172 163" fill="none" xmlns="http://www.w3.org/2000/svg">
<path fill-rule="evenodd" clip-rule="evenodd" d="M104.382 75.7384C106.921 75.7384 108.979 77.7972 108.979 80.3354V98.7178C108.979 99.937 108.495 101.106 107.633 101.968C106.771 102.831 105.602 103.315 104.382 103.315C103.163 103.315 101.994 102.831 101.132 101.968C100.27 101.106 99.7853 99.937 99.7853 98.7178V80.3354C99.7853 77.7972 101.844 75.7384 104.382 75.7384ZM86 20.5913C88.5382 20.5913 90.597 22.6501 90.597 25.1884V43.5707C90.597 44.7895 90.1129 45.9585 89.251 46.8203C88.3892 47.6821 87.2203 48.1663 86.0015 48.1663C84.7826 48.1663 83.6137 47.6821 82.7519 46.8203C81.89 45.9585 81.4059 44.7895 81.4059 43.5707V25.1884C81.4059 22.6501 83.4647 20.5913 86 20.5913ZM122.765 75.7384C125.303 75.7384 127.362 77.7972 127.362 80.3354V98.7178C127.362 99.937 126.877 101.106 126.015 101.968C125.153 102.831 123.984 103.315 122.765 103.315C121.545 103.315 120.376 102.831 119.514 101.968C118.652 101.106 118.168 99.937 118.168 98.7178V80.3354C118.168 77.7972 120.226 75.7384 122.765 75.7384ZM81.4059 117.097C81.4059 114.562 83.4647 112.503 86 112.503H141.147C142.366 112.503 143.535 112.987 144.397 113.849C145.258 114.711 145.743 115.88 145.743 117.099C145.743 118.317 145.258 119.486 144.397 120.348C143.535 121.21 142.366 121.694 141.147 121.694H86C83.4618 121.694 81.4059 119.635 81.4059 117.097ZM118.171 135.48C118.171 132.944 120.229 130.885 122.765 130.885H141.147C142.366 130.885 143.535 131.37 144.397 132.231C145.258 133.093 145.743 134.262 145.743 135.481C145.743 136.7 145.258 137.869 144.397 138.731C143.535 139.592 142.366 140.077 141.147 140.077H122.765C120.226 140.077 118.171 138.018 118.171 135.48ZM44.6412 80.3354C44.6412 77.7972 46.7 75.7384 49.2353 75.7384H67.6176C68.8365 75.7384 70.0054 76.2225 70.8672 77.0844C71.729 77.9462 72.2132 79.1151 72.2132 80.334C72.2132 81.5528 71.729 82.7217 70.8672 83.5835C70.0054 84.4454 68.8365 84.9295 67.6176 84.9295H49.2353C46.697 84.9295 44.6382 82.8707 44.6382 80.3325L44.6412 80.3354ZM52.3706 40.1531C54.2588 41.8501 54.4088 44.756 52.7117 46.6442L52.6529 46.7119C52.2493 47.1605 51.7613 47.5252 51.2167 47.7853C50.6721 48.0453 50.0817 48.1955 49.479 48.2273C48.8764 48.2591 48.2734 48.1719 47.7045 47.9707C47.1356 47.7695 46.6118 47.4582 46.1632 47.0545C45.7146 46.6509 45.3499 46.1629 45.0899 45.6183C44.8299 45.0737 44.6796 44.4833 44.6478 43.8807C44.616 43.278 44.7032 42.675 44.9044 42.1061C45.1056 41.5372 45.4169 41.0135 45.8206 40.5648L45.8794 40.4942C46.695 39.5884 47.8371 39.0436 49.0543 38.9796C50.2716 38.9156 51.4645 39.3377 52.3706 40.1531ZM89.1382 76.9207C91.0206 78.6178 91.1735 81.5237 89.4765 83.409L89.4147 83.4766C88.589 84.3426 87.4582 84.8526 86.2625 84.8981C85.0668 84.9437 83.9004 84.5212 83.0113 83.7205C82.1221 82.9198 81.5802 81.8039 81.5006 80.61C81.4211 79.4161 81.8102 78.2382 82.5853 77.3266L82.647 77.259C83.0509 76.8103 83.5392 76.4456 84.0841 76.1858C84.629 75.9259 85.2197 75.776 85.8225 75.7446C86.4254 75.7132 87.0285 75.8009 87.5974 76.0027C88.1663 76.2045 88.6899 76.5165 89.1382 76.9207ZM33.9912 76.9207C35.8735 78.6178 36.0265 81.5237 34.3294 83.409L34.2676 83.4766C33.4419 84.3426 32.3111 84.8526 31.1154 84.8981C29.9197 84.9437 28.7534 84.5212 27.8642 83.7205C26.975 82.9198 26.4331 81.8039 26.3536 80.61C26.274 79.4161 26.6631 78.2382 27.4382 77.3266L27.5 77.259C27.9038 76.8103 28.3922 76.4456 28.937 76.1858C29.4819 75.9259 30.0726 75.776 30.6755 75.7446C31.2783 75.7132 31.8814 75.8009 32.4504 76.0027C33.0193 76.2045 33.5429 76.5165 33.9912 76.9207ZM89.1353 58.5354C91.0235 60.2325 91.1735 63.1384 89.4765 65.0266L89.4176 65.0942C88.5926 65.9618 87.4617 66.4733 86.2653 66.5199C85.069 66.5666 83.9017 66.1446 83.0116 65.3439C82.1216 64.5431 81.5791 63.4267 81.4995 62.2321C81.4198 61.0375 81.8094 59.859 82.5853 58.9472L82.6441 58.8766C83.4598 57.9708 84.6018 57.4259 85.819 57.362C87.0363 57.298 88.2292 57.7201 89.1353 58.5354ZM89.1382 95.3031C91.0206 97.0001 91.1735 99.906 89.4765 101.791L89.4147 101.859C88.589 102.725 87.4582 103.235 86.2625 103.28C85.0668 103.326 83.9004 102.904 83.0113 102.103C82.1221 101.302 81.5802 100.186 81.5006 98.9924C81.4211 97.7984 81.8102 96.6205 82.5853 95.709L82.647 95.6413C83.0509 95.1926 83.5392 94.828 84.0841 94.5681C84.629 94.3083 85.2197 94.1584 85.8225 94.127C86.4254 94.0956 87.0285 94.1833 87.5974 94.3851C88.1663 94.5869 88.6899 94.8988 89.1382 95.3031ZM107.521 132.068C109.403 133.765 109.556 136.671 107.859 138.556L107.797 138.624C106.971 139.49 105.841 140 104.645 140.045C103.449 140.091 102.283 139.668 101.394 138.868C100.504 138.067 99.9625 136.951 99.883 135.757C99.8034 134.563 100.193 133.385 100.968 132.474L101.026 132.406C101.431 131.957 101.919 131.593 102.464 131.333C103.009 131.073 103.6 130.923 104.203 130.891C104.807 130.86 105.41 130.948 105.979 131.15C106.548 131.351 107.072 131.663 107.521 132.068ZM89.1382 132.068C91.0206 133.765 91.1735 136.671 89.4765 138.556L89.4147 138.624C88.589 139.49 87.4582 140 86.2625 140.045C85.0668 140.091 83.9004 139.668 83.0113 138.868C82.1221 138.067 81.5802 136.951 81.5006 135.757C81.4211 134.563 81.8102 133.385 82.5853 132.474L82.6441 132.406C83.0482 131.957 83.5368 131.593 84.0819 131.333C84.627 131.073 85.218 130.923 85.8211 130.891C86.4242 130.86 87.0275 130.948 87.5967 131.15C88.1659 131.351 88.6897 131.663 89.1382 132.068ZM144.285 76.9207C146.168 78.6178 146.321 81.5237 144.624 83.409L144.562 83.4766C143.736 84.3426 142.605 84.8526 141.41 84.8981C140.214 84.9437 139.048 84.5212 138.158 83.7205C137.269 82.9198 136.727 81.8039 136.648 80.61C136.568 79.4161 136.957 78.2382 137.732 77.3266L137.794 77.259C138.198 76.8103 138.686 76.4456 139.231 76.1858C139.776 75.9259 140.367 75.776 140.97 75.7446C141.572 75.7132 142.176 75.8009 142.744 76.0027C143.313 76.2045 143.837 76.5165 144.285 76.9207ZM144.285 95.3031C146.168 97.0001 146.321 99.906 144.624 101.791L144.562 101.859C143.736 102.725 142.605 103.235 141.41 103.28C140.214 103.326 139.048 102.904 138.158 102.103C137.269 101.302 136.727 100.186 136.648 98.9924C136.568 97.7984 136.957 96.6205 137.732 95.709L137.794 95.6413C138.198 95.1926 138.686 94.828 139.231 94.5681C139.776 94.3083 140.367 94.1584 140.97 94.127C141.572 94.0956 142.176 94.1833 142.744 94.3851C143.313 94.5869 143.837 94.8988 144.285 95.3031ZM125.9 40.1531C127.788 41.8501 127.938 44.756 126.241 46.6442L126.182 46.7119C125.779 47.1605 125.291 47.5252 124.746 47.7853C124.202 48.0453 123.611 48.1955 123.008 48.2273C122.406 48.2591 121.803 48.1719 121.234 47.9707C120.665 47.7695 120.141 47.4582 119.693 47.0545C118.787 46.2394 118.242 45.0977 118.177 43.8807C118.113 42.6636 118.535 41.4709 119.35 40.5648L119.409 40.4942C120.224 39.5884 121.366 39.0436 122.584 38.9796C123.801 38.9156 124.994 39.3377 125.9 40.1531Z" fill="url(#paint0_linear_6293_20672)"/>
<path fill-rule="evenodd" clip-rule="evenodd" d="M35.45 29.7825V57.356H63.0235V29.7825H35.45ZM26.2588 28.8649C26.2584 27.7784 26.472 26.7024 26.8874 25.6985C27.3029 24.6945 27.912 23.7823 28.68 23.0137C29.448 22.2452 30.3598 21.6354 31.3635 21.2193C32.3671 20.8031 33.4429 20.5888 34.5294 20.5884H63.9411C65.0277 20.588 66.1038 20.8017 67.1077 21.2174C68.1117 21.633 69.0239 22.2424 69.7923 23.0108C70.5606 23.7791 71.17 24.6913 71.5857 25.6953C72.0013 26.6993 72.2151 27.7753 72.2147 28.8619V58.2737C72.2139 60.4674 71.3419 62.5711 69.7904 64.122C68.2389 65.673 66.1349 66.5443 63.9411 66.5443H34.5294C32.3356 66.5435 30.232 65.6715 28.681 64.12C27.1301 62.5685 26.2588 60.4645 26.2588 58.2707V28.8649ZM108.979 29.7825V57.356H136.55V29.7825H108.979ZM99.7853 28.8649C99.7845 27.778 99.9979 26.7017 100.413 25.6973C100.829 24.693 101.438 23.7805 102.207 23.0118C102.975 22.2432 103.887 21.6335 104.892 21.2177C105.896 20.8018 106.972 20.588 108.059 20.5884H137.471C138.557 20.588 139.633 20.8017 140.637 21.2174C141.641 21.633 142.553 22.2424 143.322 23.0108C144.09 23.7791 144.699 24.6913 145.115 25.6953C145.531 26.6993 145.744 27.7753 145.744 28.8619V58.2737C145.744 59.36 145.53 60.4357 145.114 61.4394C144.698 62.443 144.089 63.3549 143.321 64.1229C142.552 64.8909 141.64 65.5001 140.636 65.9156C139.633 66.331 138.557 66.5447 137.471 66.5443H108.059C106.972 66.5447 105.896 66.3309 104.892 65.9153C103.888 65.4996 102.976 64.8902 102.208 64.1219C101.439 63.3535 100.83 62.4413 100.414 61.4373C99.9986 60.4334 99.7849 59.3573 99.7853 58.2707V28.8649ZM52.3735 113.685C54.2558 115.383 54.4088 118.288 52.7117 120.174L52.65 120.241C51.8243 121.107 50.6935 121.617 49.4978 121.663C48.3021 121.708 47.1357 121.286 46.2465 120.485C45.3574 119.685 44.8154 118.569 44.7359 117.375C44.6564 116.181 45.0455 115.003 45.8206 114.091L45.8794 114.024C46.2835 113.575 46.7721 113.21 47.3172 112.95C47.8623 112.69 48.4533 112.541 49.0564 112.509C49.6594 112.478 50.2628 112.565 50.832 112.767C51.4011 112.969 51.9249 113.281 52.3735 113.685Z" fill="url(#paint1_linear_6293_20672)"/>
<path fill-rule="evenodd" clip-rule="evenodd" d="M35.45 103.312V130.885H63.0235V103.312H35.45ZM26.2588 102.391C26.2588 100.198 27.1302 98.094 28.6812 96.543C30.2322 94.992 32.3359 94.1206 34.5294 94.1206H63.9411C65.0275 94.1202 66.1033 94.3339 67.1071 94.7493C68.1108 95.1648 69.0229 95.7739 69.7912 96.542C70.5595 97.31 71.169 98.2219 71.5848 99.2255C72.0006 100.229 72.2147 101.305 72.2147 102.391V131.803C72.2151 132.89 72.0013 133.966 71.5857 134.97C71.17 135.974 70.5606 136.886 69.7923 137.654C69.0239 138.422 68.1117 139.032 67.1077 139.447C66.1038 139.863 65.0277 140.077 63.9411 140.076H34.5294C33.443 140.076 32.3673 139.862 31.3637 139.447C30.3601 139.031 29.4482 138.421 28.6801 137.653C27.9121 136.885 27.303 135.973 26.8875 134.969C26.472 133.965 26.2584 132.889 26.2588 131.803V102.391Z" fill="url(#paint2_linear_6293_20672)"/>
<path d="M2 138.615V151.5C2 157.023 6.47715 161.5 12 161.5H24.8846" stroke="#AE6F28" stroke-width="3"/>
<path d="M169.821 138.615V151.5C169.821 157.023 165.343 161.5 159.821 161.5H146.936" stroke="#AE6F28" stroke-width="3"/>
<path d="M2 24.3846V11.5C2 5.97715 6.47715 1.5 12 1.5H24.8846" stroke="#AE6F28" stroke-width="3"/>
<path d="M169.821 24.3846V11.5C169.821 5.97715 165.343 1.5 159.821 1.5H146.936" stroke="#AE6F28" stroke-width="3"/>
<defs>
<linearGradient id="paint0_linear_6293_20672" x1="26.2588" y1="20.5913" x2="157.803" y2="154.421" gradientUnits="userSpaceOnUse">
<stop stop-color="#FBCC5D"/>
<stop offset="1" stop-color="#FF7813"/>
</linearGradient>
<linearGradient id="paint1_linear_6293_20672" x1="26.2588" y1="20.5913" x2="157.803" y2="154.421" gradientUnits="userSpaceOnUse">
<stop stop-color="#FBCC5D"/>
<stop offset="1" stop-color="#FF7813"/>
</linearGradient>
<linearGradient id="paint2_linear_6293_20672" x1="26.2588" y1="20.5912" x2="157.803" y2="154.421" gradientUnits="userSpaceOnUse">
<stop stop-color="#FBCC5D"/>
<stop offset="1" stop-color="#FF7813"/>
</linearGradient>
</defs>
</svg>
