<svg width="81" height="80" viewBox="0 0 81 80" fill="none" xmlns="http://www.w3.org/2000/svg">
<g clip-path="url(#clip0_1394_34202)">
<path d="M40.5 80C62.5914 80 80.5 62.0914 80.5 40C80.5 17.9086 62.5914 0 40.5 0C18.4086 0 0.5 17.9086 0.5 40C0.5 62.0914 18.4086 80 40.5 80Z" fill="#AE6F28"/>
<path d="M41.5095 48.9607C43.276 50.7273 43.276 53.7557 41.5095 55.5222L37.8501 59.1815C36.0836 60.9481 33.0552 60.9481 31.2886 59.1815L15.2634 43.0301C13.4968 41.2636 13.4968 38.2352 15.2634 36.4686L18.9227 32.8093C20.6893 31.0427 23.7177 31.0427 25.4842 32.8093L41.5095 48.9607Z" fill="white"/>
<path d="M55.5158 21.071C57.2824 19.3045 60.3108 19.3045 62.0773 21.071L65.7367 24.7303C67.5032 26.4969 67.5032 29.5253 65.7367 31.2918L37.9764 58.9259C36.2098 60.6925 33.1815 60.6925 31.4149 58.9259L27.7556 55.2666C25.989 53.5 25.989 50.4716 27.7556 48.7051L55.5158 21.071Z" fill="white"/>
</g>
<defs>
<clipPath id="clip0_1394_34202">
<rect width="80" height="80" fill="white" transform="translate(0.5)"/>
</clipPath>
</defs>
</svg>
