<svg width="32" height="32" viewBox="0 0 32 32" fill="none" xmlns="http://www.w3.org/2000/svg">
<rect width="32" height="32" rx="6" fill="#AE6F28"/>
<path d="M14.2367 7.07375C14.2081 7.00311 14.1592 6.9426 14.096 6.9C14.0328 6.8574 13.9584 6.83465 13.8822 6.83467H10.382C10.1711 6.83467 10 7.00579 10 7.21663L10 24.786C10 24.9968 10.1711 25.168 10.382 25.168H13.8822C14.038 25.168 14.1786 25.0733 14.2367 24.9289C14.546 24.1581 15.4138 23.6402 16.3954 23.6402C17.377 23.6402 18.2448 24.1581 18.5542 24.9289C18.5827 24.9995 18.6317 25.06 18.6948 25.1026C18.758 25.1452 18.8324 25.168 18.9086 25.168H22.4089C22.6197 25.168 22.7908 24.9968 22.7908 24.786V7.21659C22.7908 7.00575 22.6197 6.83463 22.4089 6.83463H18.9086C18.7528 6.83463 18.6122 6.92934 18.5542 7.07372C18.2448 7.84447 17.377 8.36238 16.3954 8.36238C15.4138 8.36238 14.546 7.84454 14.2367 7.07375Z" fill="white" stroke="white" stroke-width="0.5"/>
<path d="M12.5 15C12.224 15 12 14.776 12 14.5C12 14.224 12.224 14 12.5 14H13.5C13.776 14 14 14.224 14 14.5C14 14.776 13.776 15 13.5 15H12.5Z" fill="#AE6F28" stroke="#AE6F28" stroke-width="0.5"/>
<path d="M15.75 15C15.336 15 15 14.776 15 14.5C15 14.224 15.336 14 15.75 14H17.25C17.664 14 18 14.224 18 14.5C18 14.776 17.664 15 17.25 15H15.75Z" fill="#AE6F28" stroke="#AE6F28" stroke-width="0.5"/>
<path d="M19.5 15C19.224 15 19 14.776 19 14.5C19 14.224 19.224 14 19.5 14H20.5C20.776 14 21 14.224 21 14.5C21 14.776 20.776 15 20.5 15H19.5Z" fill="#AE6F28" stroke="#AE6F28" stroke-width="0.5"/>
<path d="M11 14.5C11 14.776 10.6524 15 10.2242 15H10V14H10.2242C10.6524 14 11 14.224 11 14.5Z" fill="#AE6F28" stroke="#AE6F28" stroke-width="0.5"/>
<path d="M22 14.5C22 14.776 22.3476 15 22.7758 15H23V14H22.7758C22.3476 14 22 14.224 22 14.5Z" fill="#AE6F28" stroke="#AE6F28" stroke-width="0.5"/>
</svg>
