<svg width="25" height="24" viewBox="0 0 25 24" fill="none" xmlns="http://www.w3.org/2000/svg">
<path d="M10.084 1.28694C10.0498 1.20217 9.991 1.12956 9.91521 1.07844C9.83942 1.02732 9.75007 1.00002 9.65865 1.00004H5.45835C5.20535 1.00004 5 1.20539 5 1.45839L5 22.5417C5.00004 22.7947 5.20535 23 5.45835 23H9.65865C9.84565 23 10.0143 22.8863 10.084 22.7131C10.4552 21.7882 11.4966 21.1667 12.6745 21.1667C13.8524 21.1667 14.8937 21.7882 15.265 22.7131C15.2992 22.7979 15.358 22.8705 15.4338 22.9216C15.5096 22.9727 15.5989 23 15.6903 23H19.8906C20.1436 23 20.349 22.7947 20.349 22.5417V1.45835C20.349 1.20535 20.1436 1 19.8906 1H15.6903C15.5033 1 15.3347 1.11365 15.265 1.2869C14.8937 2.2118 13.8524 2.8333 12.6745 2.8333C11.4966 2.8333 10.4552 2.21189 10.084 1.28694ZM12.6745 3.75004C14.1026 3.75004 15.3906 3.02494 15.9809 1.91669H19.4323V10.4167H18.9739C18.721 10.4167 18.5156 10.622 18.5156 10.875C18.5156 11.128 18.721 11.3334 18.9739 11.3334H19.4323V22.0833H15.9809C15.3906 20.9751 14.1036 20.25 12.6745 20.25C11.2454 20.25 9.9584 20.9751 9.3681 22.0833H5.91669L5.91669 11.3334H6.37504C6.62804 11.3334 6.83339 11.128 6.83339 10.875C6.83339 10.622 6.62804 10.4167 6.37504 10.4167H5.91669L5.91669 1.91669H9.3681C9.95935 3.02494 11.2463 3.75004 12.6745 3.75004Z" fill="#AE6F28" stroke="#AE6F28" stroke-width="0.5"/>
<path d="M8.19995 10.8984C8.19995 11.1744 8.45197 11.3984 8.76247 11.3984H9.88745C10.1979 11.3984 10.45 11.1744 10.45 10.8984C10.45 10.6224 10.1979 10.3984 9.88745 10.3984H8.76247C8.45192 10.3984 8.19995 10.6224 8.19995 10.8984ZM11.5749 10.8984C11.5749 11.1744 11.827 11.3984 12.1375 11.3984H13.2624C13.5729 11.3984 13.825 11.1744 13.825 10.8984C13.825 10.6224 13.5729 10.3984 13.2624 10.3984H12.1375C11.8269 10.3984 11.5749 10.6224 11.5749 10.8984ZM14.9499 10.8984C14.9499 11.1744 15.202 11.3984 15.5125 11.3984H16.6374C16.9479 11.3984 17.2 11.1744 17.2 10.8984C17.2 10.6224 16.9479 10.3984 16.6374 10.3984H15.5125C15.2019 10.3984 14.9499 10.6224 14.9499 10.8984Z" fill="#AE6F28" stroke="#AE6F28" stroke-width="0.5"/>
</svg>
