<svg width="16" height="16" viewBox="0 0 16 16" fill="none" xmlns="http://www.w3.org/2000/svg">
<path d="M10.0122 6.28896L10.3641 6.99872C10.4121 7.09752 10.5401 7.19226 10.6481 7.21039L11.2861 7.31726C11.694 7.38586 11.79 7.68426 11.496 7.97859L11.0001 8.47866C10.9161 8.56332 10.8701 8.72666 10.8961 8.84359L11.0381 9.46259C11.1501 9.95259 10.8921 10.1421 10.4621 9.88606L9.86419 9.52919C9.75619 9.46466 9.57825 9.46466 9.46825 9.52919L8.87032 9.88606C8.44239 10.1421 8.18239 9.95059 8.29439 9.46259L8.43639 8.84359C8.46232 8.72666 8.41639 8.56332 8.33239 8.47866L7.83645 7.97859C7.54445 7.68426 7.63845 7.38586 8.04639 7.31726L8.68432 7.21039C8.79032 7.19226 8.91832 7.09752 8.96632 6.99872L9.31825 6.28896C9.51025 5.90384 9.82219 5.90384 10.0122 6.28896Z" stroke="#AE6F28" stroke-linecap="round" stroke-linejoin="round"/>
<path d="M5.33334 11.3334V13.6667" stroke="#AE6F28" stroke-linecap="round" stroke-linejoin="round"/>
<path d="M5.33334 2.33337V4.66671" stroke="#AE6F28" stroke-linecap="round" stroke-linejoin="round"/>
<path d="M14.6667 5.91934C14.6221 4.89129 14.4971 4.22203 14.1469 3.6926C13.9454 3.38801 13.6952 3.1231 13.4075 2.90983C12.6298 2.33337 11.5327 2.33337 9.33858 2.33337H6.66208C4.4679 2.33337 3.37081 2.33337 2.59313 2.90983C2.30541 3.1231 2.05516 3.38801 1.85369 3.6926C1.50355 4.22197 1.37855 4.89114 1.33393 5.91899C1.3263 6.09476 1.4777 6.22921 1.64359 6.22921C2.56744 6.22921 3.31637 7.02204 3.31637 8.00004C3.31637 8.97804 2.56744 9.77084 1.64359 9.77084C1.4777 9.77084 1.3263 9.90531 1.33393 10.0811C1.37855 11.109 1.50355 11.7781 1.85369 12.3075C2.05516 12.612 2.30541 12.877 2.59313 13.0902C3.37081 13.6667 4.4679 13.6667 6.66209 13.6667H9.33858C11.5327 13.6667 12.6298 13.6667 13.4075 13.0902C13.6952 12.877 13.9454 12.612 14.1469 12.3075C14.4971 11.778 14.6221 11.1088 14.6667 10.0808V5.91934Z" stroke="#AE6F28" stroke-linejoin="round"/>
</svg>
