<svg width="18" height="16" viewBox="0 0 18 16" fill="none" xmlns="http://www.w3.org/2000/svg">
<path d="M14.6549 8.26116C14.6549 7.24464 15.5241 6.41964 16.595 6.41964V5.68304C16.595 2.73661 15.819 2 12.7148 2H4.95443C1.85026 2 1.07422 2.73661 1.07422 5.68304V6.05134C2.14516 6.05134 3.01432 6.87634 3.01432 7.89286C3.01432 8.90937 2.14516 9.73437 1.07422 9.73437V10.1027C1.07422 13.0491 1.85026 13.7857 4.95443 13.7857H12.7148C15.819 13.7857 16.595 13.0491 16.595 10.1027C15.5241 10.1027 14.6549 9.27768 14.6549 8.26116Z" stroke="#0A0017" stroke-linecap="round" stroke-linejoin="round"/>
<path d="M5.55664 2.64844L5.55664 13.3627" stroke="#0A0017" stroke-dasharray="1.5 1.5"/>
<path d="M8.61279 9.95759L13.0473 5.67188" stroke="#0A0017" stroke-linecap="round" stroke-linejoin="round"/>
<path d="M13.0432 9.96652H13.0499" stroke="#0A0017" stroke-width="1.2" stroke-linecap="round" stroke-linejoin="round"/>
<path d="M8.60865 6.02902H8.61529" stroke="#0A0017" stroke-width="1.2" stroke-linecap="round" stroke-linejoin="round"/>
</svg>
