<svg width="16" height="16" viewBox="0 0 16 16" fill="none" xmlns="http://www.w3.org/2000/svg">
<path d="M13.139 5.10029C13.2438 4.99553 13.4243 4.98485 13.5305 5.10066C14.1523 5.77887 14.4964 6.28105 14.6097 6.83717C14.6749 7.15717 14.6842 7.48284 14.6371 7.79964C14.5099 8.65577 13.8163 9.34944 12.4289 10.7368L10.7367 12.429C9.34939 13.8163 8.65573 14.51 7.79959 14.6372C7.48279 14.6842 7.15713 14.675 6.83713 14.6098C6.28106 14.4964 5.77893 14.1524 5.10084 13.5307C4.98489 13.4244 4.99561 13.2437 5.10049 13.1388C5.68461 12.5547 5.65685 11.5799 5.0385 10.9615C4.42014 10.3432 3.44534 10.3154 2.86121 10.8996C2.75633 11.0044 2.5756 11.0152 2.46929 10.8992C1.84763 10.2211 1.50357 9.71897 1.39025 9.16291C1.32505 8.84291 1.31578 8.51724 1.36285 8.20044C1.49008 7.34431 2.18373 6.65063 3.57104 5.26332L5.26327 3.57109C6.65058 2.18378 7.34426 1.49013 8.20039 1.36289C8.51719 1.31583 8.84286 1.3251 9.16286 1.3903C9.71899 1.50363 10.2212 1.84775 10.8994 2.46955C11.0152 2.57574 11.0045 2.75625 10.8997 2.86102C10.3156 3.44514 10.3434 4.41994 10.9617 5.0383C11.5801 5.65666 12.5549 5.68441 13.139 5.10029Z" stroke="#AE6F28" stroke-linejoin="round"/>
<path d="M12.6667 10L5.99998 3.33337" stroke="#AE6F28" stroke-linecap="round" stroke-linejoin="round"/>
</svg>
