<svg width="8" height="6" viewBox="0 0 8 6" fill="none" xmlns="http://www.w3.org/2000/svg">
<path fill-rule="evenodd" clip-rule="evenodd" d="M4.41221 0.837546C4.30282 0.728188 4.15447 0.666754 3.99979 0.666754C3.84511 0.666754 3.69677 0.728188 3.58738 0.837546L0.28746 4.13746C0.231746 4.19127 0.187306 4.25564 0.156734 4.32681C0.126162 4.39798 0.11007 4.47452 0.109397 4.55198C0.108724 4.62943 0.123483 4.70625 0.152814 4.77794C0.182144 4.84963 0.225459 4.91476 0.28023 4.96953C0.335 5.0243 0.40013 5.06761 0.47182 5.09694C0.543509 5.12627 0.620323 5.14103 0.697777 5.14036C0.775232 5.13969 0.851777 5.12359 0.922946 5.09302C0.994115 5.06245 1.05848 5.01801 1.11229 4.9623L3.99979 2.0748L6.88729 4.9623C6.99731 5.06856 7.14466 5.12735 7.29761 5.12602C7.45056 5.12469 7.59687 5.06335 7.70502 4.95519C7.81318 4.84704 7.87452 4.70073 7.87585 4.54778C7.87718 4.39483 7.81839 4.24748 7.71213 4.13746L4.41221 0.837546Z" fill="#AE6F28"/>
</svg>
